<?xml version="1.0" standalone="no"?>
<!DOCTYPE svg PUBLIC "-//W3C//DTD SVG 20010904//EN"
 "http://www.w3.org/TR/2001/REC-SVG-20010904/DTD/svg10.dtd">
<svg version="1.0" xmlns="http://www.w3.org/2000/svg"
 width="500.000000pt" height="500.000000pt" viewBox="0 0 500.000000 500.000000"
 preserveAspectRatio="xMidYMid meet">
<metadata>
Created by potrace 1.14, written by Peter Selinger 2001-2017
</metadata>
<g transform="translate(0.000000,500.000000) scale(0.100000,-0.100000)"
fill="#000000" stroke="none">
<path d="M452 4980 c-214 -56 -371 -213 -432 -431 -19 -72 -20 -97 -19 -2048
0 -1923 1 -1978 20 -2050 51 -197 191 -347 392 -423 l62 -23 1995 -2 c2177 -3
2051 -6 2180 53 63 29 150 92 194 142 48 53 103 148 128 221 l23 66 0 2010 0
2010 -22 70 c-63 200 -222 352 -424 404 -72 19 -127 20 -2049 20 -1912 0
-1977 -1 -2048 -19z"/>
</g>
</svg>
