<svg width="24" height="24" viewBox="0 0 29 31" fill="none" xmlns="http://www.w3.org/2000/svg">
<path d="M14.5 3.93003C18.238 3.93003 18.6813 3.94453 20.1583 4.01461C23.9523 4.19345 25.7245 6.05791 25.8972 9.95841C25.9648 11.4869 25.9777 11.9461 25.9777 15.8176C25.9777 19.6903 25.9637 20.1483 25.8972 21.6768C25.7233 25.5737 23.9558 27.4418 20.1583 27.6206C18.6813 27.6907 18.2403 27.7052 14.5 27.7052C10.762 27.7052 10.3187 27.6907 8.84283 27.6206C5.0395 27.4406 3.27667 25.5677 3.104 21.6756C3.03633 20.1471 3.02233 19.6891 3.02233 15.8164C3.02233 11.9449 3.0375 11.4869 3.104 9.9572C3.27783 6.05791 5.04533 4.19224 8.84283 4.01341C10.3198 3.94453 10.762 3.93003 14.5 3.93003ZM14.5 1.31641C10.6978 1.31641 10.2218 1.33332 8.7285 1.40341C3.64417 1.64507 0.8185 4.56682 0.585167 9.83757C0.516333 11.3854 0.5 11.8784 0.5 15.8164C0.5 19.7544 0.516333 20.2486 0.584 21.7952C0.817333 27.0612 3.63833 29.9877 8.72733 30.2294C10.2218 30.2995 10.6978 30.3164 14.5 30.3164C18.3022 30.3164 18.7793 30.2995 20.2727 30.2294C25.3523 29.9877 28.185 27.066 28.4148 21.7952C28.4837 20.2486 28.5 19.7544 28.5 15.8164C28.5 11.8784 28.4837 11.3854 28.416 9.83878C28.1873 4.5777 25.3628 1.64628 20.2738 1.40461C18.7793 1.33332 18.3022 1.31641 14.5 1.31641V1.31641ZM14.5 8.37066C10.5298 8.37066 7.311 11.7044 7.311 15.8164C7.311 19.9284 10.5298 23.2634 14.5 23.2634C18.4702 23.2634 21.689 19.9296 21.689 15.8164C21.689 11.7044 18.4702 8.37066 14.5 8.37066ZM14.5 20.6497C11.9228 20.6497 9.83333 18.4868 9.83333 15.8164C9.83333 13.1472 11.9228 10.9831 14.5 10.9831C17.0772 10.9831 19.1667 13.1472 19.1667 15.8164C19.1667 18.4868 17.0772 20.6497 14.5 20.6497ZM21.9737 6.33703C21.045 6.33703 20.2925 7.11641 20.2925 8.07703C20.2925 9.03766 21.045 9.81703 21.9737 9.81703C22.9012 9.81703 23.6525 9.03766 23.6525 8.07703C23.6525 7.11641 22.9012 6.33703 21.9737 6.33703Z" fill="#FFEEEE"/>
</svg>
