<svg width="24" height="25" viewBox="0 0 24 25" fill="none" xmlns="http://www.w3.org/2000/svg">
<g clip-path="url(#clip0_208_356)">
<path d="M12.65 16.6363C12.79 16.2763 12.7 15.8663 12.42 15.5863L10.33 13.5263L10.36 13.4963C12.1 11.5563 13.34 9.32631 14.07 6.96631H16.01C16.55 6.96631 17 6.51631 17 5.97631V5.95631C17 5.41631 16.55 4.96631 16.01 4.96631H10V3.96631C10 3.41631 9.55 2.96631 9 2.96631C8.45 2.96631 8 3.41631 8 3.96631V4.96631H1.99C1.45 4.96631 1 5.41631 1 5.95631C1 6.50631 1.45 6.94631 1.99 6.94631H12.17C11.5 8.88631 10.44 10.7163 9 12.3163C8.19 11.4263 7.51 10.4563 6.94 9.43631C6.78 9.14631 6.49 8.96631 6.16 8.96631C5.47 8.96631 5.03 9.71631 5.37 10.3163C6 11.4463 6.77 12.5263 7.67 13.5263L3.3 17.8363C2.9 18.2263 2.9 18.8663 3.3 19.2563C3.69 19.6463 4.32 19.6463 4.72 19.2563L9 14.9663L11.02 16.9863C11.53 17.4963 12.4 17.3063 12.65 16.6363ZM17.5 10.9663C16.9 10.9663 16.36 11.3363 16.15 11.9063L12.48 21.7063C12.24 22.3163 12.7 22.9663 13.35 22.9663C13.74 22.9663 14.09 22.7263 14.23 22.3563L15.12 19.9663H19.87L20.77 22.3563C20.91 22.7163 21.26 22.9663 21.65 22.9663C22.3 22.9663 22.76 22.3163 22.53 21.7063L18.86 11.9063C18.64 11.3363 18.1 10.9663 17.5 10.9663ZM15.88 17.9663L17.5 13.6363L19.12 17.9663H15.88Z" fill="url(#paint0_linear_208_356)"/>
</g>
<defs>
<linearGradient id="paint0_linear_208_356" x1="11.795" y1="2.96631" x2="11.795" y2="22.9663" gradientUnits="userSpaceOnUse">
<stop stop-color="#B6F829"/>
<stop offset="1" stop-color="#67DD0A"/>
</linearGradient>
<clipPath id="clip0_208_356">
<rect width="24" height="24" fill="white" transform="translate(0 0.966309)"/>
</clipPath>
</defs>
</svg>
