<svg width="24" height="24" viewBox="0 0 24 24" fill="none" xmlns="http://www.w3.org/2000/svg">
<g id="Group 14148">
<rect id="Rectangle 267" x="1.72534" y="1.32422" width="20.3876" height="21.3514" rx="4.70239" stroke="white" stroke-width="1.88096"/>
<g id="Vector">
<path d="M18.8766 18.2274H16.3282V13.2418C16.3282 10.2455 12.9303 10.4724 12.9303 13.2418V18.2274H10.3818V8.44135H12.9303V10.0116C14.117 7.71095 18.8766 7.54103 18.8766 12.2143V18.2274Z" fill="white"/>
<path d="M8.68283 18.2274H6.13438V8.44135H8.68283V18.2274Z" fill="white"/>
<path d="M7.40861 7.31328C6.58801 7.31328 5.92201 6.61047 5.92201 5.74396C5.92201 4.87744 6.58801 4.17463 7.40861 4.17463C8.22921 4.17463 8.8952 4.87744 8.8952 5.74396C8.8952 6.61047 8.23006 7.31328 7.40861 7.31328Z" fill="white"/>
</g>
</g>
</svg>
