<svg width="122" height="41" viewBox="0 0 122 41" fill="none" xmlns="http://www.w3.org/2000/svg">
<path d="M28.4757 39.1805C28.1131 39.1352 27.7277 38.9765 27.3197 38.7045C26.9344 38.4552 26.6851 38.1718 26.5717 37.8545C26.5717 37.5825 26.6057 37.2312 26.6737 36.8005C26.7644 36.3698 26.8664 35.9392 26.9797 35.5085C27.0931 35.0552 27.2064 34.6358 27.3197 34.2505C27.4331 33.8425 27.5124 33.5365 27.5577 33.3325C27.8297 33.3325 28.1697 33.4005 28.5777 33.5365C29.0084 33.6725 29.4391 33.8652 29.8697 34.1145C30.3231 34.3412 30.7424 34.6132 31.1277 34.9305C31.5357 35.2252 31.8417 35.5312 32.0457 35.8485C31.8417 36.3018 31.5811 36.7325 31.2637 37.1405C30.9464 37.5485 30.6064 37.8998 30.2437 38.1945C29.9037 38.5118 29.5751 38.7498 29.2577 38.9085C28.9404 39.0898 28.6797 39.1805 28.4757 39.1805Z" fill="#DFDFDF"/>
<path d="M59.0148 19.5625C59.0148 20.8092 58.6975 21.9992 58.0628 23.1325C57.4508 24.2658 56.6122 25.2632 55.5468 26.1245C54.5042 26.9632 53.2688 27.6318 51.8408 28.1305C50.4355 28.6292 48.9395 28.8785 47.3528 28.8785C46.7862 28.8785 46.3328 28.8105 45.9928 28.6745C45.6755 28.5158 45.3128 28.2212 44.9048 27.7905C43.7715 30.2612 42.8422 32.5392 42.1168 34.6245C41.4142 36.6872 40.8588 38.6932 40.4508 40.6425C39.5895 40.4385 38.8868 40.0758 38.3428 39.5545C37.7988 39.0558 37.3002 38.4212 36.8468 37.6505C37.0735 37.2198 37.3455 36.6532 37.6628 35.9505C37.9802 35.2478 38.3655 34.3865 38.8188 33.3665C39.2722 32.3238 39.7935 31.0885 40.3828 29.6605C40.9948 28.2098 41.7088 26.5212 42.5248 24.5945C42.8875 23.7105 43.2048 22.9398 43.4768 22.2825C43.7488 21.6252 43.9868 21.0132 44.1908 20.4465C44.3948 19.8572 44.5762 19.2792 44.7348 18.7125C44.9162 18.1458 45.0975 17.5225 45.2788 16.8425C44.2135 17.1825 43.2275 17.5792 42.3208 18.0325C41.4368 18.4858 40.7002 18.9618 40.1108 19.4605C39.9068 19.3245 39.6915 19.1205 39.4648 18.8485C39.2608 18.5765 39.0682 18.2818 38.8868 17.9645C38.7055 17.6245 38.5468 17.2845 38.4108 16.9445C38.2748 16.6045 38.1955 16.2985 38.1728 16.0265C38.8302 15.5732 39.6462 15.1538 40.6208 14.7685C41.5955 14.3832 42.6382 14.0545 43.7488 13.7825C44.8595 13.4878 46.0042 13.2612 47.1828 13.1025C48.3842 12.9438 49.5288 12.8645 50.6168 12.8645C51.9088 12.8645 53.0762 13.0345 54.1188 13.3745C55.1615 13.6918 56.0455 14.1452 56.7708 14.7345C57.4962 15.3238 58.0515 16.0265 58.4368 16.8425C58.8222 17.6585 59.0148 18.5652 59.0148 19.5625ZM52.9628 15.4825C52.1015 15.4825 51.2175 15.5505 50.3108 15.6865L50.7188 16.2985C50.4922 16.5932 50.2088 17.0352 49.8688 17.6245C49.5288 18.2138 49.1548 18.9278 48.7468 19.7665C48.3388 20.5825 47.8855 21.5005 47.3868 22.5205C46.9108 23.5405 46.4008 24.6172 45.8568 25.7505C47.6248 25.7505 49.2342 25.5918 50.6848 25.2745C52.1355 24.9345 53.3708 24.4812 54.3908 23.9145C55.4335 23.3252 56.2382 22.6452 56.8048 21.8745C57.3942 21.1038 57.6888 20.2765 57.6888 19.3925C57.6888 18.2138 57.2922 17.2732 56.4988 16.5705C55.7055 15.8452 54.5268 15.4825 52.9628 15.4825Z" fill="#DFDFDF"/>
<path d="M73.3493 13.1365C73.78 13.3178 74.222 13.5558 74.6753 13.8505C75.1286 14.1225 75.548 14.4058 75.9333 14.7005C76.3186 14.9952 76.636 15.2898 76.8853 15.5845C77.1573 15.8565 77.3046 16.0832 77.3273 16.2645C76.942 16.1738 76.5566 16.1172 76.1713 16.0945C75.786 16.0492 75.4346 16.0265 75.1173 16.0265C74.0973 16.0265 73.0773 16.2758 72.0573 16.7745C71.06 17.2732 70.108 17.9532 69.2013 18.8145C68.2946 19.6758 67.456 20.6845 66.6853 21.8405C65.9146 22.9965 65.246 24.2318 64.6793 25.5465C64.1353 26.8612 63.7046 28.2212 63.3873 29.6265C63.07 31.0318 62.9113 32.4145 62.9113 33.7745C62.9113 35.5425 63.206 36.8572 63.7953 37.7185C64.3846 38.5798 65.246 39.0105 66.3793 39.0105C66.9233 39.0105 67.5126 38.8972 68.1473 38.6705C68.782 38.4665 69.428 38.1718 70.0853 37.7865C70.7426 37.4012 71.3886 36.9365 72.0233 36.3925C72.658 35.8485 73.2473 35.2478 73.7913 34.5905C74.5846 33.6385 75.2986 32.5618 75.9333 31.3605C76.568 30.1365 77.1006 28.8445 77.5313 27.4845C77.9846 26.1245 78.3246 24.7305 78.5513 23.3025C78.8006 21.8518 78.9253 20.4352 78.9253 19.0525C78.9253 18.5085 78.914 18.0552 78.8913 17.6925C78.8686 17.3072 78.8346 16.9898 78.7893 16.7405C78.7666 16.4685 78.744 16.2532 78.7213 16.0945C78.6986 15.9358 78.676 15.7998 78.6533 15.6865C78.9253 15.8225 79.22 15.9925 79.5373 16.1965C79.8773 16.3778 80.1833 16.6612 80.4553 17.0465C80.75 17.4092 80.988 17.8965 81.1693 18.5085C81.3733 19.1205 81.4753 19.9138 81.4753 20.8885C81.4753 22.4752 81.2826 24.0392 80.8973 25.5805C80.5346 27.0992 80.0133 28.5498 79.3333 29.9325C78.676 31.3152 77.894 32.6072 76.9873 33.8085C76.0806 35.0098 75.106 36.0638 74.0633 36.9705C72.7033 38.1718 71.2526 39.1012 69.7113 39.7585C68.17 40.4158 66.6853 40.7445 65.2573 40.7445C63.172 40.7445 61.574 40.0758 60.4633 38.7385C59.3753 37.4238 58.8313 35.4745 58.8313 32.8905C58.8313 31.5078 58.9786 30.0458 59.2733 28.5045C59.5906 26.9632 60.0213 25.4445 60.5653 23.9485C61.132 22.4525 61.8006 21.0358 62.5713 19.6985C63.342 18.3385 64.1806 17.1485 65.0873 16.1285C66.0166 15.0858 67.0026 14.2585 68.0453 13.6465C69.1106 13.0345 70.1986 12.7285 71.3093 12.7285C71.672 12.7285 72.012 12.7625 72.3293 12.8305C72.6466 12.8758 72.9866 12.9778 73.3493 13.1365Z" fill="#DFDFDF"/>
<path d="M94.8936 35.9505C95.4603 36.9252 95.7436 37.8658 95.7436 38.7725C95.7436 38.9765 95.721 39.1578 95.6756 39.3165C95.653 39.4978 95.619 39.6792 95.5736 39.8605C95.1883 39.8152 94.7803 39.7812 94.3496 39.7585C93.9416 39.7358 93.511 39.7245 93.0576 39.7245C92.5136 39.7245 91.9583 39.7358 91.3916 39.7585C90.8476 39.8038 90.2356 39.8605 89.5556 39.9285C88.8756 39.9965 88.1163 40.0872 87.2776 40.2005C86.439 40.3138 85.4643 40.4612 84.3536 40.6425C83.8323 40.4612 83.311 40.0985 82.7896 39.5545C82.2683 39.0332 81.781 38.3985 81.3276 37.6505C81.5543 37.1518 81.8376 36.5398 82.1776 35.8145C82.5176 35.0665 82.9143 34.1712 83.3676 33.1285C83.821 32.0632 84.3196 30.8278 84.8636 29.4225C85.4303 27.9945 86.031 26.3512 86.6656 24.4925C87.0736 23.2685 87.425 22.1918 87.7196 21.2625C88.0143 20.3332 88.275 19.4378 88.5016 18.5765C88.751 17.6925 88.989 16.7745 89.2156 15.8225C89.4423 14.8705 89.6916 13.7712 89.9636 12.5245C90.8703 12.7058 91.6523 13.0458 92.3096 13.5445C92.9896 14.0205 93.6356 14.7118 94.2476 15.6185C94.0663 15.9132 93.8283 16.3892 93.5336 17.0465C93.239 17.7038 92.8876 18.5085 92.4796 19.4605C92.0943 20.3898 91.6636 21.4552 91.1876 22.6565C90.7116 23.8352 90.213 25.1045 89.6916 26.4645C89.193 27.8018 88.7056 29.0598 88.2296 30.2385C87.7536 31.4172 87.323 32.4825 86.9376 33.4345C86.575 34.3865 86.2803 35.2025 86.0536 35.8825C85.827 36.5625 85.7136 37.0725 85.7136 37.4125C86.0763 37.3898 86.405 37.3672 86.6996 37.3445C86.9943 37.3218 87.3003 37.2878 87.6176 37.2425C87.935 37.1745 88.275 37.1065 88.6376 37.0385C89.023 36.9478 89.4763 36.8345 89.9976 36.6985C90.451 36.5852 90.8703 36.4945 91.2556 36.4265C91.641 36.3358 92.015 36.2678 92.3776 36.2225C92.763 36.1545 93.1483 36.1092 93.5336 36.0865C93.9416 36.0412 94.395 35.9958 94.8936 35.9505Z" fill="#DFDFDF"/>
<path d="M112.922 23.4045C113.67 23.4045 114.248 23.6085 114.656 24.0165C115.087 24.4245 115.302 24.9912 115.302 25.7165C115.302 25.8978 115.28 26.0905 115.234 26.2945C115.212 26.4758 115.178 26.6345 115.132 26.7705C114.838 26.7252 114.509 26.6912 114.146 26.6685C113.784 26.6232 113.353 26.6005 112.854 26.6005C111.88 26.6005 110.894 26.6912 109.896 26.8725C108.899 27.0312 107.947 27.1672 107.04 27.2805C106.519 28.4818 106.043 29.6492 105.612 30.7825C105.182 31.8932 104.808 32.9132 104.49 33.8425C104.196 34.7718 103.958 35.5765 103.776 36.2565C103.618 36.9365 103.527 37.4465 103.504 37.7865C105.34 37.4012 107.188 37.0725 109.046 36.8005C110.928 36.5285 112.9 36.3245 114.962 36.1885C115.212 36.5738 115.416 36.9932 115.574 37.4465C115.756 37.8998 115.846 38.3872 115.846 38.9085C115.846 39.0445 115.846 39.1918 115.846 39.3505C115.846 39.5092 115.824 39.6678 115.778 39.8265C115.144 39.8038 114.475 39.7812 113.772 39.7585C113.07 39.7585 112.152 39.7585 111.018 39.7585C110.27 39.7585 109.556 39.7698 108.876 39.7925C108.219 39.8378 107.55 39.8945 106.87 39.9625C106.19 40.0305 105.465 40.1212 104.694 40.2345C103.946 40.3478 103.096 40.4838 102.144 40.6425C101.102 40.2345 100.093 39.2372 99.1184 37.6505C99.5037 36.8345 100.036 35.5992 100.716 33.9445C101.419 32.2672 102.303 30.0345 103.368 27.2465C102.348 26.9292 101.68 26.3625 101.362 25.5465C101.476 25.4332 101.804 25.2972 102.348 25.1385C102.892 24.9572 103.561 24.7758 104.354 24.5945C104.694 23.7105 104.978 22.9398 105.204 22.2825C105.454 21.6252 105.669 21.0132 105.85 20.4465C106.032 19.8572 106.19 19.2905 106.326 18.7465C106.485 18.1798 106.632 17.5678 106.768 16.9105C105.975 16.8652 105.352 16.6498 104.898 16.2645C104.445 15.8565 104.218 15.3352 104.218 14.7005C104.218 14.5192 104.241 14.3038 104.286 14.0545C104.354 13.8052 104.422 13.5898 104.49 13.4085C104.944 13.4765 105.374 13.5218 105.782 13.5445C106.213 13.5672 106.768 13.5785 107.448 13.5785C108.876 13.5785 110.214 13.5445 111.46 13.4765C112.707 13.3858 113.829 13.2952 114.826 13.2045C115.846 13.1138 116.719 13.0345 117.444 12.9665C118.17 12.8758 118.725 12.8305 119.11 12.8305C119.632 12.8305 120.096 13.1025 120.504 13.6465C120.912 14.1905 121.218 14.9612 121.422 15.9585C120.72 15.8905 120.142 15.8452 119.688 15.8225C119.258 15.7998 118.872 15.7885 118.532 15.7885C117.286 15.7885 116.141 15.8565 115.098 15.9925C114.078 16.1058 113.092 16.2305 112.14 16.3665C112.004 16.5705 111.846 16.8312 111.664 17.1485C111.506 17.4658 111.29 17.9078 111.018 18.4745C110.746 19.0412 110.406 19.7552 109.998 20.6165C109.613 21.4778 109.137 22.5545 108.57 23.8465C109.432 23.7105 110.236 23.6085 110.984 23.5405C111.755 23.4498 112.401 23.4045 112.922 23.4045Z" fill="#DFDFDF"/>
<path fill-rule="evenodd" clip-rule="evenodd" d="M24.8585 20.9905C25.7198 20.1972 26.3318 19.4605 26.6945 18.7805L26.0009 18.3734L25.4065 18.0245L22.9065 19.5245C22.96 19.8323 23.0224 19.861 23.1438 19.9168C23.228 19.9556 23.3406 20.0074 23.4985 20.1745C23.539 20.215 23.5803 20.2543 23.6223 20.2923C23.9799 20.6158 24.392 20.8485 24.8585 20.9905Z" fill="#DFDFDF"/>
<path d="M24.3825 27.0765C24.9718 27.0765 25.4365 27.2805 25.7765 27.6885C26.1165 28.0965 26.2865 28.6632 26.2865 29.3885C26.2865 29.5698 26.2751 29.7625 26.2525 29.9665C26.2298 30.1478 26.1958 30.3065 26.1505 30.4425C25.6745 30.3292 25.1531 30.2612 24.5865 30.2385C24.4505 31.2358 24.0878 32.2898 23.4985 33.4005C22.9091 34.4885 22.1951 35.5198 21.3565 36.4945C20.5178 37.4465 19.5998 38.2852 18.6025 39.0105C17.6051 39.7358 16.6191 40.2232 15.6445 40.4725C12.6071 40.4045 10.3858 39.6112 8.98046 38.0925C7.59779 36.5965 6.90646 34.2505 6.90646 31.0545C6.90646 28.9597 7.01809 27.2025 7.6632 25.2917C7.73708 25.0729 7.81796 24.8521 7.90646 24.6285H12.5134H12.5505C11.7798 26.7592 11.3945 29.1618 11.3945 31.8365C11.3945 32.8338 11.4965 33.7405 11.7005 34.5565C11.9045 35.3725 12.1765 36.0865 12.5165 36.6985C12.8565 37.3105 13.2531 37.7978 13.7065 38.1605C14.1825 38.5232 14.6925 38.7272 15.2365 38.7725C15.9618 38.6138 16.6871 38.2512 17.4125 37.6845C18.1378 37.0952 18.7951 36.4152 19.3845 35.6445C19.9965 34.8512 20.5065 34.0125 20.9145 33.1285C21.3451 32.2218 21.6058 31.3605 21.6965 30.5445C21.0618 30.6805 20.4498 30.8165 19.8605 30.9525C19.2938 31.0658 18.7498 31.1225 18.2285 31.1225C17.5485 31.1225 16.9478 30.9525 16.4265 30.6125C15.9278 30.2725 15.5878 29.8078 15.4065 29.2185C15.8145 28.9918 16.4038 28.7538 17.1745 28.5045C17.9678 28.2552 18.8065 28.0285 19.6905 27.8245C20.5745 27.5978 21.4358 27.4165 22.2745 27.2805C23.1358 27.1445 23.8385 27.0765 24.3825 27.0765Z" fill="#DFDFDF"/>
<path d="M0.582148 22.2836C0.548098 22.2847 0.514515 22.2941 0.484859 22.3108C0.455202 22.3275 0.430546 22.3508 0.413431 22.3785C0.36558 22.4529 0.324371 22.5307 0.29568 22.5806C0.181278 22.6448 0.181564 22.6456 0.103516 22.6499C0.104694 22.5914 0.152274 22.5514 0.182021 22.5053C0.286903 22.3426 0.392741 22.1804 0.503357 22.0209C0.556307 21.949 1.08694 21.4062 1.14772 21.3395C1.28117 21.1847 1.41763 21.0318 1.5506 20.8766C1.70099 20.7132 1.88775 20.5805 2.09724 20.4884C2.2664 20.4126 2.42635 20.3196 2.57387 20.2112C2.67203 20.1338 2.78297 20.0716 2.90198 20.027C3.03043 19.98 3.14898 19.9179 3.27166 19.8619C3.40493 19.7907 3.54393 19.7295 3.6872 19.6789C3.83453 19.6374 3.97213 19.5694 4.12183 19.5385C4.25751 19.4908 4.39614 19.4516 4.53673 19.421C4.66918 19.3654 4.79767 19.3015 4.92125 19.2299C5.07669 19.1175 5.25351 19.0332 5.44138 18.9822C5.55559 18.8829 5.68745 18.8023 5.83061 18.7443C5.90859 18.7115 5.98288 18.6711 6.05214 18.624C6.18578 18.5379 6.3151 18.4458 6.44739 18.3578C6.48659 18.3269 6.53102 18.3022 6.57869 18.2848C6.72365 18.2352 6.85731 18.1592 6.97116 18.0615C7.04905 17.9994 7.13204 17.9429 7.21931 17.8927C7.29882 17.8435 7.37394 17.7885 7.44386 17.7281L7.64371 17.7071L7.67852 17.7696C7.68054 17.8043 7.67288 17.8394 7.65625 17.8716C7.63962 17.9038 7.61455 17.932 7.58339 17.9538C7.51307 18.0127 7.45713 18.0844 7.41956 18.1638C7.28561 18.2754 7.13889 18.3732 6.98227 18.4554L6.90406 18.5168C6.81862 18.5829 6.7258 18.6403 6.62735 18.6881C6.38457 18.8069 6.15691 18.9514 5.94937 19.1184C5.89958 19.1621 5.84577 19.2018 5.78861 19.2369C5.66011 19.3151 5.52846 19.3888 5.39469 19.4664L5.34702 19.6086L5.17575 19.7752L4.77729 19.9807C4.6985 20.0656 4.61073 20.1434 4.51537 20.2127C4.43094 20.2661 4.3429 20.3144 4.25186 20.3572C4.09818 20.4263 3.95377 20.514 3.79895 20.5973C3.71193 20.7027 3.60064 20.7898 3.47361 20.8519C3.32533 20.9127 3.18396 20.9877 3.05204 21.0758C2.94303 21.1394 2.83075 21.1979 2.71565 21.251C2.61501 21.2955 2.52155 21.3533 2.43849 21.4225L2.3375 21.496C2.21249 21.5669 2.1065 21.6635 2.02852 21.7774C1.96217 21.8692 1.41393 22.4297 1.34186 22.5203L1.21476 22.6039L1.05973 22.8364L0.652654 23C0.577955 22.9907 0.550695 22.9339 0.518383 22.8864C0.481483 22.7893 0.467596 22.6853 0.477609 22.5808C0.487621 22.4763 0.521314 22.3737 0.576536 22.2796L0.63048 22.0838L0.561188 22.1338C0.548474 22.1587 0.54369 22.1861 0.547406 22.2127C0.551121 22.2392 0.563179 22.2638 0.582148 22.2836Z" fill="#DFDFDF"/>
<path d="M10.7328 9.59998C10.9278 9.54773 11.1357 9.49203 11.3499 9.43464L11.4062 9.41956C11.5304 9.38627 11.6516 9.3538 11.7785 9.31978C11.9055 9.28575 12.0428 9.24897 12.1668 9.21574C12.3069 9.17822 12.4438 9.14152 12.5771 9.10581L12.6021 9.09911L12.3697 9.16137C12.35 9.16666 12.3145 9.17617 12.2676 9.18874C12.2207 9.20131 12.1643 9.21641 12.1052 9.23226L11.7368 9.33095C11.6896 9.3436 11.6405 9.35677 11.5938 9.36928C11.5471 9.3818 11.5042 9.39329 11.469 9.40273C11.368 9.42978 11.2474 9.46209 11.1175 9.4969C10.9766 9.53466 10.8411 9.57097 10.7126 9.6054L10.619 9.63048C10.4095 9.68661 10.2284 9.73513 10.0908 9.772C9.94248 9.81175 9.81254 9.84657 9.71768 9.87199L9.70431 9.87557L9.78782 9.85319C9.89684 9.82398 9.98394 9.80064 10.0969 9.77038C10.1543 9.755 10.2094 9.74023 10.2559 9.72778C10.4277 9.68175 10.5878 9.63884 10.7328 9.59998Z" fill="#DFDFDF"/>
<path d="M12.8487 13.8843L12.8083 13.7335L12.8008 13.6523L12.8567 13.2439C13.0357 13.3883 13.1703 13.3268 13.238 13.0696C13.3777 13.2183 13.4994 13.268 13.5935 13.2149C13.7082 13.2114 13.8319 13.2444 13.9637 13.3135C14.0988 13.3646 14.2385 13.4359 14.3935 13.5063C14.5191 13.6919 14.637 13.817 14.7413 13.8754C14.7785 13.8814 14.8233 13.9206 14.8723 13.99C14.9214 14.0595 14.9733 14.1574 15.0243 14.2764L15.0657 14.5598C14.9858 14.6928 14.8766 14.7307 14.7445 14.6714C14.506 14.5909 14.2647 14.4983 14.0262 14.4173C13.953 14.3924 13.9251 14.5447 13.8299 14.4362C13.6834 14.4513 13.5206 14.4021 13.3441 14.2893C13.2165 14.2345 13.0666 14.0826 12.9332 14.007L12.8487 13.8843Z" fill="#DFDFDF"/>
<path d="M7.85397 18.4239C7.72523 17.9434 7.72598 17.9462 7.66044 17.7016C7.64034 17.6266 7.65896 17.6961 7.71286 17.8973L7.85397 18.4239L7.93558 18.7285C7.9734 18.8696 8.00964 19.0049 8.0407 19.1208C8.04273 19.1284 8.04474 19.1359 8.04673 19.1433C8.07908 19.264 8.104 19.357 8.11867 19.4118C8.14181 19.4981 8.15907 19.5626 8.17019 19.604C8.12891 19.45 8.08571 19.2888 8.0407 19.1208C7.98147 18.8997 7.91913 18.6671 7.85397 18.4239Z" fill="#DFDFDF"/>
<path d="M7.17882 17.7991C7.34431 17.7548 7.38208 17.7447 7.44522 17.7278L7.6477 17.6735C7.66259 17.6695 7.64379 17.6745 7.59362 17.688C7.54344 17.7014 7.46409 17.7227 7.36535 17.7492L6.93752 17.8638C6.8615 17.8842 6.7962 17.9017 6.75115 17.9137C6.70609 17.9258 6.68365 17.9318 6.68707 17.9309C6.76307 17.9105 6.93929 17.8633 7.17882 17.7991Z" fill="#DFDFDF"/>
<path d="M8.80016 18.0918C8.83376 18.2172 8.87357 18.3658 8.91375 18.5158C8.97176 18.7323 9.02978 18.9488 9.08638 19.16L9.12845 19.317C9.13404 19.3379 9.1366 19.3475 9.1359 19.3448C9.13519 19.3422 9.13123 19.3274 9.12441 19.302L9.10483 19.2289C9.09458 19.1906 9.08406 19.1514 9.07351 19.112C8.97083 18.7288 8.86814 18.3455 8.76606 17.9646C8.72969 17.8289 8.69244 17.6898 8.65878 17.5642C8.64802 17.5241 8.63849 17.4885 8.63133 17.4617C8.62416 17.435 8.61967 17.4182 8.61837 17.4134C8.62097 17.4231 8.62699 17.4456 8.6358 17.4784C8.64461 17.5113 8.65588 17.5534 8.66844 17.6003C8.68829 17.6743 8.70886 17.7511 8.72978 17.8292C8.75047 17.9064 8.77163 17.9854 8.80016 18.0918Z" fill="#DFDFDF"/>
<path fill-rule="evenodd" clip-rule="evenodd" d="M14.5862 4.38874L14.1699 4.24587L14.1026 4.07495C14.0349 4.02451 13.9623 4.04287 13.8764 4.01289C13.6502 3.74847 13.3569 3.54993 13.0272 3.43822C12.8925 3.29552 12.7367 3.17433 12.5653 3.07886C12.5476 3.03691 12.5404 2.99134 12.5441 2.94599C12.5478 2.90064 12.5623 2.85684 12.5865 2.81827C12.6572 2.76623 12.7451 2.74325 12.8323 2.75407L12.86 2.77483L12.9614 2.97521L13.0611 3.09341L13.2746 3.18554L13.4081 3.34273L13.4872 3.37898L13.4889 3.37962C13.6137 3.42622 13.7386 3.47286 13.8646 3.51627C13.9108 3.53585 13.9602 3.54695 14.0104 3.54904C14.1115 3.54528 14.2115 3.57061 14.2986 3.622C14.3418 3.64001 14.3872 3.65201 14.4337 3.65768C14.5568 3.63787 14.6729 3.5877 14.7717 3.51172L15.0247 3.17946L15.1563 3.15998L15.6047 2.67563C15.6135 2.64149 15.6141 2.60574 15.6063 2.57133C15.5986 2.53693 15.5828 2.50487 15.5602 2.4778L15.3974 2.25321L15.3039 1.58878C15.3399 1.52102 15.4 1.56608 15.4434 1.54529L15.5899 1.4906L15.717 1.55593C15.7829 1.70771 15.812 1.87292 15.8019 2.0381C15.8679 2.20965 16.031 2.24637 16.1366 2.35017C16.2065 2.35027 16.2762 2.34228 16.3443 2.32636C16.5294 2.27049 16.7232 2.2491 16.916 2.26324C17.0921 2.26453 17.2683 2.27848 17.4442 2.29105C17.5109 2.29584 17.5767 2.31237 17.6314 2.32153L17.7711 2.40096L17.9715 2.41714C18.029 2.46823 18.0837 2.52228 18.1355 2.57906C18.1791 2.6364 18.2195 2.69607 18.2566 2.75781C18.2846 2.77424 18.3155 2.785 18.3476 2.78946C18.3798 2.79393 18.4125 2.79202 18.4438 2.78384L18.4574 2.71987L18.3678 2.45739C18.2797 2.33424 18.1631 2.23427 18.0278 2.16605C17.8802 2.08649 17.7393 1.9945 17.5931 1.91197C17.4934 1.85022 17.3899 1.79486 17.2832 1.74625C17.1772 1.69574 17.0781 1.63189 16.9883 1.55624C16.9028 1.4885 16.8077 1.4338 16.7061 1.39391C16.6438 1.36902 16.5853 1.33535 16.5326 1.29391C16.4457 1.22858 16.3657 1.15408 16.2801 1.08683C16.1994 1.01344 16.1101 0.950012 16.0143 0.897899C15.9698 0.871335 15.9284 0.840029 15.8907 0.804532C15.8342 0.811846 15.7772 0.813783 15.7204 0.810316C15.6705 0.802098 15.6192 0.806371 15.5713 0.822754C15.5234 0.839137 15.4802 0.86712 15.4458 0.904207C15.3524 0.988546 15.2445 1.05542 15.1275 1.10165C14.9526 1.18257 14.7859 1.28107 14.6164 1.37339C14.5648 1.40147 14.5171 1.43738 14.4639 1.46135C14.4094 1.48281 14.3538 1.50127 14.2974 1.51663C14.1593 1.62552 14.0057 1.71313 13.8416 1.77652C13.716 1.82209 13.5908 1.8666 13.4615 1.90325C13.2763 1.95894 13.0957 2.02849 12.921 2.1113C12.6804 2.23242 12.4657 2.39934 12.289 2.60267L12.108 2.79622L12.0633 2.91365C12.0124 2.9802 11.9179 3.03017 11.8904 3.13784C11.8796 3.18035 11.8259 3.21186 11.78 3.26093C11.7717 3.30444 11.7592 3.34704 11.7426 3.38815C11.5808 3.72043 11.4767 4.07715 11.3115 4.40748C11.239 4.55845 11.1753 4.7135 11.1207 4.87185C11.0695 5.0131 11.0351 5.16051 10.9901 5.31555L11.044 5.44732C11.0475 5.58236 10.9431 5.67301 10.8886 5.82028C10.8711 5.98489 10.8173 6.1436 10.7311 6.28501C10.6618 6.44655 10.6091 6.61438 10.5348 6.77337C10.503 6.84166 10.467 6.90797 10.4271 6.97193C10.326 7.14549 10.2121 7.31132 10.0865 7.46809C10.0452 7.51 10.0113 7.55863 9.98635 7.6119C9.93897 7.74035 9.84721 7.84106 9.78891 7.96162L9.68934 8.01199C9.61187 8.11636 9.54738 8.21461 9.47149 8.30318C9.40862 8.37667 9.36175 8.46243 9.33386 8.55501C9.30598 8.64758 9.29768 8.74494 9.30951 8.84088C9.33651 9.0577 9.33769 9.27697 9.31304 9.4941C9.30924 9.57056 9.31372 10.0714 9.32639 10.1469C9.25745 10.3783 9.23097 10.4672 9.20419 10.5108C9.22364 10.5046 9.24395 10.5012 9.2645 10.5007C9.29754 10.5 9.33029 10.507 9.36016 10.5211L9.39321 10.558C9.43461 10.6494 9.51072 11.187 9.54598 11.2809C9.57504 11.369 9.58621 11.462 9.57883 11.5545L9.56749 11.9039C9.5398 12.0093 9.50535 12.1127 9.46436 12.2137C9.42035 12.3322 9.39263 12.4562 9.38194 12.5821C9.39997 12.6205 9.4258 12.6547 9.45778 12.6826C9.48976 12.7105 9.5272 12.7314 9.56771 12.744C9.84651 12.8391 10.1188 12.9522 10.383 13.0826L10.5062 13.0919L10.6565 13.1795L10.8406 13.2585L11.0275 13.3193L11.3697 13.3161L11.6137 13.4247C11.6564 13.4512 11.6912 13.4887 11.7143 13.5333C11.7374 13.5779 11.748 13.628 11.745 13.6781C11.7332 13.7105 11.7128 13.739 11.686 13.7607C11.6592 13.7824 11.6271 13.7964 11.5929 13.8012C11.4375 13.8377 11.2799 13.8643 11.1211 13.881C10.9873 13.887 10.8532 13.885 10.7196 13.875L10.4121 13.8589L9.72619 13.618L9.64584 13.6803C9.63267 13.6943 9.6161 13.7046 9.59775 13.7103C9.57939 13.716 9.55988 13.7168 9.54112 13.7127L9.45743 13.6125L9.41554 13.634L9.23385 13.9597L9.13086 14.3295C9.16105 14.4483 9.15855 14.573 9.12362 14.6905L9.16776 15.0105L9.25653 15.1467L9.31897 15.4742C9.33299 15.5397 9.35371 15.6038 9.37358 15.6679L9.48396 16.0151C9.54166 16.0853 9.57988 16.1694 9.59479 16.2591C9.60969 16.3487 9.60074 16.4407 9.56885 16.5258L9.52882 16.685C9.53665 16.7116 9.55401 16.7344 9.57758 16.7491C9.60115 16.7637 9.6293 16.7692 9.65666 16.7645C9.84132 16.7442 10.0222 16.8156 10.2075 16.7813C10.2581 16.7765 10.3091 16.781 10.3581 16.7945C10.5305 16.8335 10.7101 16.8278 10.8798 16.7778C10.9431 16.7625 11.0076 16.7523 11.0726 16.7473C11.1401 16.7162 11.1284 16.6419 11.1975 16.5664C11.3349 16.4518 11.4567 16.3196 11.5598 16.1733L11.7013 16.1052L11.805 16.1328L12.4832 16.0008L12.5585 15.9936C12.6492 15.9758 12.7199 15.9047 12.8171 15.9001C12.901 15.8977 12.9839 15.8814 13.0624 15.852C13.1721 15.8086 13.2891 15.7867 13.4071 15.7873C13.5828 15.7887 13.7578 15.7834 13.9341 15.8025C14.134 15.8241 14.3362 15.8249 14.5372 15.8284C14.6176 15.8169 14.6994 15.8221 14.7776 15.8436C14.8559 15.8651 14.9289 15.9024 14.9921 15.9532L15.1362 15.9478L15.2415 16.0186C15.3251 16.0438 15.4153 16.0358 15.4933 15.9964C15.7169 15.8975 15.9572 15.8482 16.1835 15.7577C16.3082 15.7079 16.4368 15.6668 16.5588 15.6112C16.7126 15.5429 16.8489 15.4407 16.9576 15.3123L17.1364 15.2506L17.3927 14.9865L17.5419 14.9465C17.7696 14.8055 17.9809 14.6397 18.172 14.4521L18.4227 14.2422L18.5005 14.1789C18.5999 14.0534 18.7416 13.9743 18.8491 13.8569C18.9291 13.781 19.0141 13.7106 19.1036 13.6461L19.2816 13.4391C19.3399 13.3671 19.4109 13.3064 19.4911 13.26C19.5221 13.2464 19.5493 13.2257 19.5706 13.1994C19.5918 13.1731 19.6064 13.1421 19.6131 13.109C19.6068 13.0253 19.521 13.0181 19.4665 12.9525L19.3734 12.7645L19.2285 12.7023C19.0183 12.5005 18.9201 12.2364 18.7215 12.0728C18.6372 11.8512 18.5072 11.6498 18.3401 11.4816C18.2688 11.3617 18.2387 11.2218 18.2542 11.0832L18.2392 11.01L18.214 10.9657C18.184 10.9505 18.1503 10.9441 18.1168 10.9472C18.0833 10.9504 18.0513 10.9629 18.0246 10.9834C17.9509 11.0225 17.8837 11.0741 17.8043 11.1266L17.5469 11.1956C17.4531 11.2804 17.3468 11.3502 17.2316 11.4025C17.203 11.4119 17.1841 11.448 17.1583 11.4689L17.0287 11.5671L16.9064 11.7704L16.694 11.8575C16.6232 11.8851 16.5462 11.8929 16.4713 11.8802C16.3888 11.8677 16.3047 11.865 16.2312 11.8588C16.0555 11.9282 15.8732 11.9794 15.6871 12.0115C15.5802 12.0338 15.4756 12.0659 15.3745 12.1073C15.1777 12.1798 14.9852 12.2633 14.7856 12.3291C14.5985 12.4055 14.3954 12.4341 14.1945 12.4122C14.0729 12.4329 13.9479 12.4172 13.8352 12.3671C13.668 12.3639 13.5075 12.4209 13.359 12.3326C13.3654 12.2529 13.3654 12.2529 13.4856 12.1415C13.5339 12.1188 13.5853 12.1032 13.638 12.0954C13.7729 12.0962 13.9057 12.0631 14.0245 11.9992L14.0477 11.9887C14.2886 11.9543 14.5234 11.8858 14.745 11.7853C14.9078 11.7457 15.0587 11.6676 15.1849 11.5574C15.3472 11.5505 15.5063 11.5099 15.6521 11.4383C15.8694 11.3478 16.0663 11.2147 16.2312 11.0469L16.2907 11.001L16.413 10.9144L16.5039 10.8208C16.5818 10.7946 16.6562 10.7587 16.7253 10.714C16.9207 10.5832 17.1299 10.4741 17.3491 10.3888C17.515 10.329 17.6848 10.2805 17.8573 10.2437C17.916 10.2366 17.9715 10.2128 18.0171 10.1752C18.0498 10.0647 17.9618 9.98709 17.9387 9.87976C17.8151 9.80021 17.7137 9.69086 17.6436 9.56179C17.5241 9.48023 17.397 9.41049 17.264 9.35358C17.1786 9.31795 17.0986 9.27042 17.0264 9.21242C16.8496 9.08426 16.6655 8.96645 16.475 8.85956C16.3315 8.77411 16.2008 8.66801 16.0485 8.59662C16.0115 8.57654 15.9786 8.54969 15.9515 8.51746C15.8701 8.42879 15.7732 8.35561 15.6657 8.30145C15.5903 8.18172 15.4884 8.0809 15.3679 8.00679C15.2986 7.95939 15.2364 7.90231 15.1833 7.83728L14.9146 7.54215L14.8471 7.48925C14.8087 7.4964 14.7711 7.50697 14.7346 7.52085L14.6062 7.59966C14.4987 7.66584 14.381 7.71376 14.2579 7.74148C14.1243 7.7626 13.997 7.81269 13.8848 7.88825L13.8003 7.91215L13.6122 7.83095C13.5679 7.83822 13.523 7.8405 13.4782 7.83776C13.4029 7.83098 13.3271 7.83879 13.2548 7.86078C13.1472 7.89456 13.034 7.90606 12.9218 7.89456C12.7947 7.98773 12.6482 8.05117 12.4933 8.0802C12.4365 8.09461 12.3812 8.11408 12.3279 8.13836L12.088 8.23867L11.9582 8.21111C11.6544 8.28499 11.3396 8.30195 11.0298 8.26114L11.0276 8.20361C11.0927 8.13819 11.1736 8.0905 11.2623 8.06507C11.4818 7.98159 11.6971 7.88624 11.9189 7.80956C12.1247 7.73781 12.3219 7.64334 12.5068 7.5279C12.8063 7.39534 13.0939 7.23745 13.3665 7.05595C13.4806 6.9852 13.5891 6.9058 13.691 6.81846C13.7647 6.76324 13.8423 6.71212 13.9101 6.65032C14.0086 6.5606 14.0995 6.46262 14.1943 6.36891C14.2271 6.33126 14.2642 6.2975 14.3047 6.26827C14.4128 6.20348 14.5099 6.12177 14.5921 6.02625C14.6329 5.98506 14.6768 5.94718 14.7236 5.91297C14.78 5.80803 14.7999 5.6873 14.78 5.56987L14.7679 5.49609C14.7859 5.32095 14.7716 5.144 14.7256 4.97404C14.7094 4.8155 14.679 4.65873 14.6348 4.50561L14.5862 4.38874ZM12.8083 13.7335L12.8487 13.8843L12.9332 14.007C13.0666 14.0826 13.2165 14.2345 13.3441 14.2893C13.5206 14.4021 13.6834 14.4513 13.8299 14.4362C13.9251 14.5447 13.953 14.3924 14.0262 14.4173C14.2647 14.4983 14.506 14.5909 14.7445 14.6714C14.8766 14.7307 14.9858 14.6928 15.0657 14.5598L15.0243 14.2764C14.9733 14.1574 14.9214 14.0595 14.8723 13.99C14.8233 13.9206 14.7785 13.8814 14.7413 13.8754C14.637 13.817 14.5191 13.6919 14.3935 13.5063C14.2385 13.4359 14.0988 13.3646 13.9637 13.3135C13.8319 13.2444 13.7082 13.2114 13.5935 13.2149C13.4994 13.268 13.3777 13.2183 13.238 13.0696C13.1703 13.3268 13.0357 13.3883 12.8567 13.2439L12.8008 13.6523L12.8083 13.7335Z" fill="#DFDFDF"/>
<path fill-rule="evenodd" clip-rule="evenodd" d="M9.14335 10.5631C9.17066 10.5476 9.18748 10.538 9.20419 10.5108C9.19236 10.5146 9.18085 10.5194 9.1698 10.5252C9.16006 10.5347 9.15125 10.5451 9.14349 10.5562L9.14154 10.559L9.14335 10.5631ZM22.3432 13.779C22.3467 13.7814 22.3503 13.7839 22.3538 13.7864L22.3432 13.779ZM22.4827 13.8985C22.4435 13.8572 22.4003 13.8197 22.3538 13.7864C22.2813 13.7924 22.2087 13.7951 22.1362 13.7946L22.0883 13.8041L22.0311 13.8498L22.1357 13.8803C22.25 13.8973 22.3663 13.9034 22.4827 13.8985Z" fill="#DFDFDF"/>
<path fill-rule="evenodd" clip-rule="evenodd" d="M22.1357 13.8803C22.25 13.8973 22.3663 13.9034 22.4827 13.8985C22.4435 13.8572 22.4003 13.8197 22.3538 13.7864C22.2813 13.7924 22.2087 13.7951 22.1362 13.7946L22.0883 13.8041L22.0311 13.8498L22.1357 13.8803ZM25.9221 18.4595C25.9467 18.4291 25.9715 18.3987 26.0009 18.3734L25.4065 18.0245L22.9065 19.5245C22.96 19.8323 23.0224 19.861 23.1438 19.9168C23.228 19.9556 23.3406 20.0074 23.4985 20.1745C23.539 20.215 23.5803 20.2543 23.6223 20.2923L23.7736 20.2195L23.9107 20.16L24.0408 19.9794L24.4543 19.7934C24.5438 19.7157 24.5764 19.6307 24.609 19.5456C24.6201 19.5165 24.6313 19.4874 24.6448 19.4585C24.6577 19.4479 24.671 19.4366 24.6847 19.4251C24.7172 19.3974 24.7518 19.368 24.789 19.3419C24.8367 19.3109 24.8862 19.2822 24.937 19.256L25.1083 19.1607L25.356 19.0093C25.4955 18.8449 25.6532 18.6939 25.8263 18.5588C25.8634 18.5318 25.8927 18.4957 25.9221 18.4595ZM12.5134 24.6285H7.90646C7.81796 24.8521 7.73708 25.0729 7.6632 25.2917L7.88229 25.2617C7.97277 25.2592 8.06167 25.2576 8.14945 25.2561C8.34757 25.2526 8.54002 25.2492 8.73223 25.2359C8.77635 25.2329 8.82049 25.2299 8.86464 25.227C9.08953 25.2121 9.31459 25.1972 9.53918 25.1637C9.70664 25.1387 9.87346 25.1095 10.0432 25.0798C10.1534 25.0605 10.2649 25.041 10.3785 25.0223C10.5021 25.0469 10.6326 25.0389 10.7551 24.9992C10.8421 24.9722 10.9271 24.9389 11.0122 24.9056C11.0495 24.8911 11.0868 24.8765 11.1242 24.8624C11.2769 24.8866 11.4358 24.8741 11.5857 24.8261C11.6407 24.8086 11.6974 24.7969 11.7546 24.7912C11.8776 24.7826 11.9996 24.7586 12.1171 24.7198L12.1269 24.7172C12.2034 24.6971 12.2802 24.6769 12.3578 24.6631C12.4102 24.6536 12.462 24.6417 12.5134 24.6285Z" fill="#DFDFDF"/>
<path d="M22.9065 19.5245L25.4065 18.0245L26.0009 18.3734L26.0066 18.3687C26.2026 18.208 26.3103 17.9813 26.5107 17.825C26.5775 17.7283 26.6556 17.6382 26.7436 17.5565C26.873 17.4118 27.0166 17.278 27.1723 17.1569L27.4505 16.7821C27.6313 16.6579 27.7916 16.5099 27.9255 16.3432C28.0169 16.2333 28.1006 16.1182 28.1758 15.9988C28.2071 15.9447 28.2444 15.8934 28.2868 15.8457C28.4153 15.7464 28.5156 15.62 28.5781 15.4784L28.6292 15.4285L28.6842 15.3524L28.8457 15.0145C28.9426 14.885 29.0304 14.7727 29.1118 14.6567C29.145 14.6124 29.1683 14.5629 29.1802 14.5111C29.2031 14.3843 29.2531 14.2631 29.284 14.15L29.2512 14.0275C29.152 13.9542 29.0403 13.896 28.92 13.8549C28.8897 13.8478 28.8741 13.8168 28.8915 13.7766C28.9878 13.7136 29.0671 13.6308 29.1225 13.5354L29.1541 13.3419L29.2116 13.1307C29.2011 13.101 29.1815 13.075 29.1551 13.0557C29.1288 13.0364 29.0966 13.0246 29.0624 13.0214C28.9254 12.99 28.7995 12.9302 28.6941 12.8466C28.6298 12.8233 28.5628 12.8058 28.4942 12.7941C28.4228 12.7819 28.3543 12.7598 28.291 12.7286C28.2526 12.7178 28.2129 12.7105 28.1726 12.7068C28.0781 12.6868 27.9821 12.6721 27.8852 12.6625C27.6495 12.6506 27.413 12.6473 27.1767 12.6411L27.1277 12.6467C26.8524 12.7001 26.5717 12.7039 26.2972 12.754C26.0635 12.7967 25.835 12.8707 25.6045 12.9325L25.5386 12.9655C25.3067 13.0695 25.0654 13.1531 24.8182 13.215C24.5708 13.2809 24.3297 13.3685 24.0984 13.4765C24.0063 13.5012 23.9336 13.5171 23.8633 13.5401C23.6733 13.5951 23.4806 13.6405 23.2861 13.6764C23.214 13.6938 23.1402 13.7031 23.0665 13.7039C22.9272 13.7046 22.7877 13.718 22.6499 13.7439C22.552 13.7641 22.453 13.7783 22.3538 13.7864C22.4003 13.8197 22.4435 13.8572 22.4827 13.8985C22.5705 13.8948 22.6585 13.8848 22.7457 13.8686C22.8667 13.8446 22.99 13.8351 23.1121 13.8404L23.2344 13.8363L23.6831 13.7805C23.7669 13.7949 23.8529 13.7993 23.939 13.7933C24.127 13.7693 24.3123 13.7249 24.491 13.6611C24.7211 13.5709 24.9606 13.5049 25.2045 13.4643C25.4789 13.406 25.7566 13.3669 26.0353 13.3473C26.1918 13.3372 26.3458 13.3414 26.5011 13.3403C26.6639 13.3391 26.8277 13.3115 26.9913 13.2983C27.0969 13.2899 27.2029 13.2865 27.3336 13.2794C27.5117 13.3497 27.7112 13.3694 27.9072 13.3362L28.1124 13.4084C28.1656 13.4516 28.2124 13.5009 28.2517 13.5552C28.2988 13.6413 28.364 13.7153 28.4138 13.7983C28.4756 13.87 28.5131 13.9573 28.5221 14.0501C28.4311 14.1667 28.375 14.3021 28.3597 14.4419L28.3418 14.4844C28.2736 14.6553 28.1619 14.8101 28.1002 14.9837C28.0833 15.0186 28.0601 15.0509 28.0317 15.0793L27.8903 15.2413C27.8079 15.2796 27.7341 15.3326 27.6737 15.3972C27.6065 15.4758 27.5304 15.5485 27.4675 15.6297C27.3997 15.7177 27.3143 15.7936 27.2161 15.8529C27.1246 15.9074 27.0441 15.9765 26.9787 16.0567C26.9323 16.1208 26.8764 16.1788 26.8128 16.2292C26.6799 16.3352 26.5584 16.4528 26.4501 16.5799C26.3717 16.67 26.2841 16.7532 26.1886 16.8284C26.0716 16.9157 25.9665 17.0158 25.876 17.1263C25.8285 17.193 25.7641 17.2485 25.6885 17.2876C25.6216 17.3909 25.548 17.4906 25.468 17.5862C25.3856 17.6738 25.3148 17.7695 25.2298 17.8537C25.0771 18.0055 24.9236 18.1574 24.757 18.2971C24.6394 18.3957 24.5177 18.4906 24.3934 18.582C24.3285 18.6297 24.2532 18.6652 24.1842 18.7083C23.9248 18.8913 23.6417 19.0431 23.3424 19.1599L23.2756 19.1911C23.1418 19.2536 23.0033 19.3062 22.8612 19.3484C22.7258 19.406 22.6058 19.4939 22.4635 19.5415C22.1746 19.6383 21.8867 19.7381 21.5983 19.8361L21.526 19.8528C21.445 19.8675 21.3662 19.8931 21.2922 19.9286C21.125 19.9977 20.9575 20.067 20.7873 20.1287C20.6249 20.1879 20.4586 20.2367 20.2945 20.2915C20.2472 20.3061 20.2012 20.3247 20.1573 20.3471C19.9118 20.4796 19.6518 20.584 19.3983 20.7007C19.2393 20.768 19.0838 20.8424 18.9323 20.9238C18.8594 20.9616 18.7847 20.996 18.7082 21.0268L18.5068 21.1185C18.2502 21.229 17.9941 21.3407 17.736 21.4478C17.5765 21.514 17.4127 21.5704 17.2528 21.6354C17.0846 21.7038 16.9181 21.7761 16.7516 21.8484L16.731 21.8573C16.6408 21.8965 16.5508 21.9368 16.4631 21.981C16.3433 22.0519 16.2141 22.1074 16.0792 22.1459C16.031 22.158 15.9852 22.1778 15.9438 22.2044C15.8189 22.2798 15.6751 22.3227 15.5288 22.3282L15.3775 22.4232C15.3242 22.4601 15.2658 22.4898 15.204 22.5116C14.9465 22.5749 14.7193 22.7199 14.4573 22.7687C14.3246 22.8316 14.183 22.8754 14.0377 22.8984L13.8332 23.0303C13.7658 23.0396 13.699 23.0528 13.6331 23.07C13.563 23.0925 13.4981 23.1295 13.4292 23.156C13.3682 23.1801 13.3057 23.2005 13.2422 23.2172C12.9522 23.2814 12.6665 23.3639 12.3872 23.4643C12.2861 23.4986 12.1829 23.5272 12.0785 23.5497C12.046 23.5541 12.0141 23.5619 11.9832 23.573C11.8326 23.6392 11.6755 23.6912 11.5147 23.728C11.3666 23.7799 11.2123 23.8128 11.0564 23.8258C11.0071 23.8276 10.9581 23.8377 10.9118 23.8555C10.758 23.9145 10.5975 23.9555 10.4344 23.9773C10.3203 23.9941 10.2073 24.0183 10.0961 24.0495C9.86568 24.1129 9.63188 24.1633 9.39608 24.2002C9.08156 24.2631 8.76411 24.3083 8.44553 24.3357C8.28299 24.3628 8.11837 24.3706 7.95583 24.3588C7.91507 24.358 7.87409 24.3619 7.83386 24.3703C7.68717 24.3919 7.53909 24.3975 7.39273 24.3871C7.35207 24.384 7.31083 24.3863 7.27029 24.3941L6.85507 24.4461L6.53583 24.4772L5.79309 24.5343C5.68785 24.5029 5.57476 24.4951 5.46295 24.5115C5.40573 24.5153 5.34851 24.5142 5.29206 24.5082C5.16363 24.4912 5.03279 24.4876 4.90199 24.4975C4.82027 24.5062 4.73822 24.5052 4.65785 24.4947C4.55407 24.4783 4.44803 24.4728 4.3417 24.4782C4.22699 24.4823 4.11244 24.4808 3.99853 24.4738C3.92493 24.4737 3.85228 24.4638 3.78289 24.4443C3.59947 24.3859 3.40515 24.3562 3.20784 24.3564C2.98217 24.2835 2.76146 24.1995 2.54664 24.1049C2.41572 24.1131 2.28566 24.0974 2.16402 24.0588L1.92404 23.8089C1.89871 23.7806 1.86888 23.7561 1.83548 23.7359C1.74061 23.6841 1.50038 23.4493 1.44532 23.3616C1.29253 23.293 1.15648 23.1983 1.0441 23.0824C0.994863 23.0345 0.936859 22.9947 0.872446 22.9648L0.652654 23C0.555315 23.127 0.690233 23.0728 0.757147 23.2647C0.855958 23.3886 1.13458 23.6612 1.26634 23.7559C1.43816 23.8749 1.57586 24.0299 1.75986 24.1364C1.79672 24.1641 1.8289 24.1965 1.85546 24.2328C1.9388 24.329 2.04347 24.4077 2.16314 24.4641C2.51542 24.4609 2.84931 24.5793 3.0984 24.7957C3.30107 24.8338 3.49698 24.8936 3.68217 24.9739C3.83195 24.973 3.9793 24.9968 4.11713 25.0443C4.27854 25.0893 4.43376 25.1501 4.5933 25.2007C4.68307 25.2343 4.78142 25.2472 4.88015 25.2385C4.96229 25.2289 5.04481 25.2361 5.12161 25.2598C5.22998 25.2897 5.34458 25.3005 5.45946 25.2916C5.53283 25.2869 5.6065 25.2919 5.68 25.2939C5.98971 25.3021 6.29913 25.3153 6.60916 25.3176C6.81276 25.3191 7.01739 25.3052 7.25774 25.2969L7.39053 25.3227L7.65685 25.2926L7.6632 25.2917C7.73708 25.0729 7.81796 24.8521 7.90646 24.6285H12.5134C12.5894 24.609 12.6648 24.5869 12.7407 24.5666C13.0208 24.469 13.3094 24.3968 13.6023 24.3511C13.7011 24.3405 13.7972 24.3097 13.8833 24.261L14.0599 24.1742L14.1349 24.1496L14.3434 24.1488C14.5296 24.0749 14.7219 24.0166 14.918 23.9744C15.012 23.9478 15.1077 23.928 15.2043 23.9151L15.6317 23.7844C15.7285 23.764 15.8231 23.7341 15.9139 23.6954C16.0462 23.6297 16.1861 23.5789 16.3303 23.5439C16.3629 23.5392 16.3946 23.5292 16.4238 23.5142C16.5367 23.4444 16.6682 23.406 16.8013 23.404C17.0301 23.2771 17.2786 23.1853 17.5365 23.1326C17.6085 23.1141 17.6768 23.0839 17.7382 23.0436C17.8357 22.9844 17.9358 22.929 18.0323 22.8736C18.2144 22.851 18.3912 22.794 18.5514 22.7061C18.7323 22.6104 18.9208 22.5282 19.115 22.4603L19.225 22.4063C19.4835 22.2499 19.7572 22.1169 20.042 22.0094C20.1044 21.9879 20.1651 21.962 20.2235 21.932C20.2694 21.9138 20.3119 21.8886 20.3491 21.8574C20.4918 21.738 20.6623 21.6505 20.846 21.6026C21.0138 21.5369 21.1765 21.4599 21.3328 21.3722C21.4481 21.3106 21.5648 21.2508 21.6846 21.1982C21.8426 21.1285 22.0042 21.0668 22.1644 21.0021C22.3318 20.9343 22.4809 20.8326 22.65 20.7676C22.7284 20.743 22.8037 20.7094 22.8739 20.6678C23.0114 20.5803 23.159 20.5074 23.3134 20.4507C23.4039 20.4133 23.4873 20.3598 23.5748 20.3152L23.6223 20.2923C23.5803 20.2543 23.539 20.215 23.4985 20.1745C23.3406 20.0074 23.228 19.9556 23.1438 19.9168C23.0224 19.861 22.96 19.8323 22.9065 19.5245Z" fill="#DFDFDF"/>
<path fill-rule="evenodd" clip-rule="evenodd" d="M14.1699 4.24587L14.5862 4.38874L14.6348 4.50561C14.679 4.65873 14.7094 4.8155 14.7256 4.97404C14.7716 5.144 14.7859 5.32095 14.7679 5.49609L14.78 5.56987C14.7999 5.6873 14.78 5.80803 14.7236 5.91297C14.6768 5.94718 14.6329 5.98506 14.5921 6.02625C14.5099 6.12177 14.4128 6.20348 14.3047 6.26827C14.2642 6.2975 14.2271 6.33126 14.1943 6.36891C14.0995 6.46262 14.0086 6.5606 13.9101 6.65032C13.8423 6.71212 13.7647 6.76324 13.691 6.81846C13.5891 6.9058 13.4806 6.9852 13.3665 7.05595C13.0939 7.23745 12.8063 7.39534 12.5068 7.5279C12.3219 7.64334 12.1247 7.73781 11.9189 7.80956C11.6971 7.88624 11.4818 7.98159 11.2623 8.06507C11.1736 8.0905 11.0927 8.13819 11.0276 8.20361L11.0298 8.26114C11.3396 8.30195 11.6544 8.28499 11.9582 8.21111L12.088 8.23867L12.3279 8.13836C12.3812 8.11408 12.4365 8.09461 12.4933 8.0802C12.6482 8.05117 12.7947 7.98773 12.9218 7.89456C13.034 7.90606 13.1472 7.89456 13.2548 7.86078C13.3271 7.83879 13.4029 7.83098 13.4782 7.83776C13.523 7.8405 13.5679 7.83822 13.6122 7.83095L13.8003 7.91215L13.8848 7.88825C13.997 7.81269 14.1243 7.7626 14.2579 7.74148C14.381 7.71376 14.4987 7.66584 14.6062 7.59966L14.7346 7.52085C14.7711 7.50697 14.8087 7.4964 14.8471 7.48925L14.9146 7.54215L15.1833 7.83728C15.2364 7.90231 15.2986 7.95939 15.3679 8.00679C15.4884 8.0809 15.5903 8.18172 15.6657 8.30145C15.7732 8.35561 15.8701 8.42879 15.9515 8.51746C15.9786 8.54969 16.0115 8.57654 16.0485 8.59662C16.2008 8.66801 16.3315 8.77411 16.475 8.85956C16.6655 8.96645 16.8496 9.08426 17.0264 9.21242C17.0986 9.27042 17.1786 9.31795 17.264 9.35358C17.397 9.41049 17.5241 9.48023 17.6436 9.56179C17.7137 9.69086 17.8151 9.80021 17.9387 9.87976C17.9618 9.98709 18.0498 10.0647 18.0171 10.1752C17.9715 10.2128 17.916 10.2366 17.8573 10.2437C17.6848 10.2805 17.515 10.329 17.3491 10.3888C17.1299 10.4741 16.9207 10.5832 16.7253 10.714C16.6562 10.7587 16.5818 10.7946 16.5039 10.8208L16.413 10.9144L16.2907 11.001L16.2312 11.0469C16.0663 11.2147 15.8694 11.3478 15.6521 11.4383C15.5063 11.5099 15.3472 11.5505 15.1849 11.5574C15.0587 11.6676 14.9078 11.7457 14.745 11.7853C14.5234 11.8858 14.2886 11.9543 14.0477 11.9887L14.0245 11.9992C13.9057 12.0631 13.7729 12.0962 13.638 12.0954C13.5853 12.1032 13.5339 12.1188 13.4856 12.1415C13.3654 12.2529 13.3654 12.2529 13.359 12.3326C13.5075 12.4209 13.668 12.3639 13.8352 12.3671C13.9479 12.4172 14.0729 12.4329 14.1945 12.4122C14.3954 12.4341 14.5985 12.4055 14.7856 12.3291C14.9852 12.2633 15.1777 12.1798 15.3745 12.1073C15.4756 12.0659 15.5802 12.0338 15.6871 12.0115C15.8732 11.9794 16.0555 11.9282 16.2312 11.8588C16.3047 11.865 16.3888 11.8677 16.4713 11.8802C16.5462 11.8929 16.6232 11.8851 16.694 11.8575L16.9064 11.7704L17.0287 11.5671L17.1583 11.4689C17.1841 11.448 17.203 11.4119 17.2316 11.4025C17.3468 11.3502 17.4531 11.2804 17.5469 11.1956L17.8043 11.1266C17.8837 11.0741 17.9509 11.0225 18.0246 10.9834C18.0513 10.9629 18.0833 10.9504 18.1168 10.9472C18.1503 10.9441 18.184 10.9505 18.214 10.9657L18.2392 11.01L18.2542 11.0832C18.2387 11.2218 18.2688 11.3617 18.3401 11.4816C18.5072 11.6498 18.6372 11.8512 18.7215 12.0728C18.9201 12.2364 19.0183 12.5005 19.2285 12.7023L19.3734 12.7645L19.4665 12.9525C19.521 13.0181 19.6068 13.0253 19.6131 13.109C19.6064 13.1421 19.5918 13.1731 19.5706 13.1994C19.5493 13.2257 19.5221 13.2464 19.4911 13.26C19.4109 13.3064 19.3399 13.3671 19.2816 13.4391L19.1036 13.6461C19.0141 13.7106 18.9291 13.781 18.8491 13.8569C18.7416 13.9743 18.5999 14.0534 18.5005 14.1789L18.4227 14.2422L18.172 14.4521C17.9809 14.6397 17.7696 14.8055 17.5419 14.9465L17.3927 14.9865L17.1364 15.2506L16.9576 15.3123C16.8489 15.4407 16.7126 15.5429 16.5588 15.6112C16.4368 15.6668 16.3082 15.7079 16.1835 15.7577C15.9572 15.8482 15.7169 15.8975 15.4933 15.9964C15.4153 16.0358 15.3251 16.0438 15.2415 16.0186L15.1362 15.9478L14.9921 15.9532C14.9289 15.9024 14.8559 15.8651 14.7776 15.8436C14.6994 15.8221 14.6176 15.8169 14.5372 15.8284C14.3362 15.8249 14.134 15.8241 13.9341 15.8025C13.7578 15.7834 13.5828 15.7887 13.4071 15.7873C13.2891 15.7867 13.1721 15.8086 13.0624 15.852C12.9839 15.8814 12.901 15.8977 12.8171 15.9001C12.7199 15.9047 12.6492 15.9758 12.5585 15.9936L12.4832 16.0008L11.805 16.1328L11.7013 16.1052L11.5598 16.1733C11.4567 16.3196 11.3349 16.4518 11.1975 16.5664C11.1284 16.6419 11.1401 16.7162 11.0726 16.7473C11.0076 16.7523 10.9431 16.7625 10.8798 16.7778C10.7101 16.8278 10.5305 16.8335 10.3581 16.7945C10.3091 16.781 10.2581 16.7765 10.2075 16.7813C10.0222 16.8156 9.84132 16.7442 9.65666 16.7645C9.6293 16.7692 9.60115 16.7637 9.57758 16.7491C9.55401 16.7344 9.53665 16.7116 9.52882 16.685L9.56885 16.5258C9.60074 16.4407 9.60969 16.3487 9.59479 16.2591C9.57988 16.1694 9.54166 16.0853 9.48396 16.0151L9.37358 15.6679C9.35371 15.6038 9.33299 15.5397 9.31897 15.4742L9.25653 15.1467L9.16776 15.0105L9.12362 14.6905C9.15855 14.573 9.16105 14.4483 9.13086 14.3295L9.23385 13.9597L9.41554 13.634L9.45743 13.6125L9.54112 13.7127C9.55988 13.7168 9.57939 13.716 9.59775 13.7103C9.6161 13.7046 9.63267 13.6943 9.64584 13.6803L9.72619 13.618L10.4121 13.8589L10.7196 13.875C10.8532 13.885 10.9873 13.887 11.1211 13.881C11.2799 13.8643 11.4375 13.8377 11.5929 13.8012C11.6271 13.7964 11.6592 13.7824 11.686 13.7607C11.7128 13.739 11.7332 13.7105 11.745 13.6781C11.748 13.628 11.7374 13.5779 11.7143 13.5333C11.6912 13.4887 11.6564 13.4512 11.6137 13.4247L11.3697 13.3161L11.0275 13.3193L10.8406 13.2585L10.6565 13.1795L10.5062 13.0919L10.383 13.0826C10.1188 12.9522 9.84651 12.8391 9.56771 12.744C9.5272 12.7314 9.48976 12.7105 9.45778 12.6826C9.4258 12.6547 9.39997 12.6205 9.38194 12.5821C9.39263 12.4562 9.42035 12.3322 9.46436 12.2137C9.50535 12.1127 9.5398 12.0093 9.56749 11.9039L9.57883 11.5545C9.58621 11.462 9.57504 11.369 9.54598 11.2809C9.51072 11.187 9.43461 10.6494 9.39321 10.558L9.36016 10.5211C9.33029 10.507 9.29754 10.5 9.2645 10.5007C9.24395 10.5012 9.22364 10.5046 9.20419 10.5108C9.18748 10.538 9.17066 10.5476 9.14335 10.5631L9.14154 10.559C9.13109 10.5744 9.12261 10.5911 9.11635 10.6088C9.10516 10.6404 9.13441 11.1208 9.1383 11.1541C9.13763 11.3802 9.12441 11.606 9.09871 11.8306C9.09249 11.9142 9.07605 11.9967 9.04975 12.0763C9.02387 12.161 9.01066 12.249 9.01055 12.3375C8.94099 12.4604 8.89414 12.5949 8.87226 12.7344L8.86722 13.1595L9.03295 13.3336L8.99474 13.407C8.87411 13.518 8.83892 13.6813 8.74585 13.8092L8.72212 13.9056L8.7115 14.0055C8.64822 14.1958 8.56232 14.3779 8.45564 14.5477C8.40194 14.612 8.34184 14.671 8.28032 14.7369C8.23312 14.8589 8.19793 14.9853 8.17526 15.1142L8.2617 15.3835C8.32991 15.5328 8.35755 15.6974 8.34182 15.8607C8.40956 15.9522 8.45846 16.0563 8.48566 16.1668C8.46326 16.3005 8.46923 16.4373 8.50316 16.5685L8.50501 16.6183C8.49361 16.7099 8.49692 16.8027 8.51484 16.8932L8.49941 16.957L8.38083 17.0479C8.28482 17.0914 8.21263 17.0383 8.15212 17.0854L8.13864 17.1085L8.20412 17.2616C8.14353 17.3814 8.0269 17.4566 7.99982 17.6142L8.11546 18.3045C8.0857 18.4367 8.07144 18.5719 8.07298 18.7074C8.07339 18.8323 8.05351 18.9573 8.03962 19.1125L8.0407 19.1208C8.05644 19.2422 8.06293 19.2956 8.04934 19.3432C8.03888 19.3798 8.01652 19.4131 7.97733 19.4714C7.89101 19.5183 7.80033 19.5567 7.70657 19.5861L7.59454 19.4474L7.57672 19.4484C7.58201 19.5222 7.61454 19.5976 7.54628 19.6955L7.3473 19.8374C7.12395 19.9863 6.89964 20.1336 6.67437 20.2795C6.63153 20.3059 6.58604 20.3279 6.53864 20.3449C6.31924 20.43 6.11449 20.5488 5.93181 20.6971C5.8802 20.7398 5.82325 20.7757 5.76239 20.8037C5.54662 20.8972 5.32695 20.9811 5.10426 21.0573C4.92157 21.1198 4.74152 21.1904 4.56195 21.2614C4.5342 21.2727 4.515 21.3056 4.49115 21.3289L4.52435 21.4088L4.62356 21.4112C4.82074 21.3689 5.01887 21.3293 5.2139 21.2779C5.37153 21.2317 5.5341 21.2044 5.69818 21.1966C6.09081 21.0139 6.51708 20.9145 6.95005 20.9047L7.33655 20.8207C7.40293 20.7654 7.4832 20.7293 7.56866 20.7163C7.65942 20.6986 7.74605 20.664 7.82404 20.6143C7.96172 20.5235 8.11377 20.4567 8.27376 20.4165L8.52418 20.1962C8.5839 20.1819 8.64437 20.171 8.70532 20.1636C9.01471 20.1372 9.32542 20.1297 9.6357 20.1414C9.76949 20.1583 9.90538 20.1444 10.033 20.1009C10.0895 20.0848 10.1481 20.0778 10.2068 20.0802C10.3077 20.0755 10.407 20.0531 10.5001 20.0141C10.5698 19.9852 10.6421 19.9629 10.7159 19.9476C10.8387 19.9215 10.9632 19.9028 11.0679 19.8843C11.1225 19.8421 11.1782 19.8283 11.1707 19.7633C11.1547 19.7495 11.1359 19.7394 11.1156 19.7337C11.0952 19.7281 11.0739 19.727 11.0531 19.7306C10.9023 19.7288 10.7517 19.7434 10.6039 19.7741C10.458 19.8148 10.3057 19.8279 10.155 19.8127C10.1136 19.8061 10.0717 19.8027 10.0298 19.8025C9.77008 19.7957 9.51089 19.7754 9.2533 19.7416C9.21057 19.7417 9.17459 19.7143 9.1654 19.6479L9.23767 19.4944C9.23778 19.2394 9.2623 18.9849 9.31088 18.7346C9.30518 18.3531 9.2556 17.9736 9.1631 17.6035C9.0846 17.5617 9.01733 17.5016 8.96696 17.4283C8.89128 17.3803 8.82067 17.4109 8.77802 17.3552C8.76678 17.3328 8.76174 17.3078 8.7634 17.2828C8.76507 17.2579 8.77339 17.2338 8.7875 17.2131C8.80613 17.1812 8.83308 17.1549 8.86548 17.1371C8.89788 17.1193 8.9345 17.1107 8.97144 17.112C9.06149 17.1408 9.15653 17.1505 9.25054 17.1405C9.33358 17.1288 9.41776 17.1275 9.50111 17.1368C9.78391 17.176 10.072 17.1204 10.353 17.1879L10.4533 17.1841L10.7538 17.1497C10.8202 17.1405 10.887 17.135 10.954 17.1329C11.0295 17.1329 11.105 17.1446 11.1806 17.1475L11.4104 17.1488C11.4283 17.1778 11.4425 17.2088 11.4528 17.2413C11.4921 17.4124 11.5198 17.586 11.5357 17.7608C11.5429 17.895 11.5595 18.0285 11.5853 18.1603C11.6089 18.2924 11.6288 18.4253 11.6469 18.5582C11.6639 18.6575 11.669 18.7584 11.6622 18.8589C11.6575 18.9343 11.6611 19.01 11.673 19.0846C11.6861 19.1922 11.7067 19.2987 11.7263 19.42L11.9311 19.637C12.0184 19.6847 12.1108 19.6907 12.1617 19.7663L12.1809 19.8336L12.0702 19.9552C12.0662 19.9855 12.0704 20.0163 12.0825 20.0443C12.0946 20.0723 12.1141 20.0965 12.1388 20.1144L12.4635 20.275C12.5216 20.2697 12.5782 20.2532 12.63 20.2264C12.7105 20.1651 12.8073 20.129 12.9082 20.1228L13.2322 20.0781L13.4077 20.0718L14.0348 20.0992L14.9567 19.796C15.3439 19.7833 15.45 19.7469 15.6291 19.5615C15.6551 19.5084 15.6351 19.4413 15.7017 19.3795C15.7967 19.3447 15.8935 19.315 15.9917 19.2905C16.154 19.2489 16.3138 19.1979 16.4703 19.1379C16.57 19.0944 16.6724 19.0569 16.7767 19.0259C16.898 18.9928 17.0152 18.9458 17.1259 18.8861C17.1919 18.8499 17.2621 18.8214 17.3312 18.7911L17.4713 18.7344L18.3199 18.3237L18.4622 18.2025C18.6102 18.0913 18.7906 18.0345 18.9372 17.9206L18.9834 17.9013C19.0893 17.8746 19.1905 17.8319 19.2834 17.7745L19.3016 17.7661C19.4403 17.7016 19.5788 17.6372 19.7192 17.5768C19.7743 17.5563 19.8308 17.5396 19.8882 17.5267C19.9611 17.5067 20.0342 17.4876 20.1265 17.4629C20.2038 17.41 20.2851 17.363 20.3695 17.3223C20.4958 17.2751 20.6096 17.1996 20.7021 17.1016C20.7637 17.0318 20.843 16.98 20.9316 16.9514C20.9858 16.9293 21.0369 16.9004 21.084 16.8655L21.3692 16.6625C21.4536 16.5584 21.5449 16.4584 21.6203 16.3488C21.6957 16.2392 21.7557 16.1191 21.8182 16.0112L21.8968 15.9744C22.0706 15.9439 22.241 15.8965 22.4056 15.8329C22.4693 15.8111 22.5348 15.7948 22.6013 15.784C22.8092 15.7504 23.0084 15.6753 23.1868 15.5633L23.3219 15.4055C23.4913 15.3601 23.6521 15.287 23.7977 15.1891C23.9027 15.1207 24.0114 15.0578 24.1388 14.98C24.2189 14.8638 24.2516 14.6843 24.3587 14.6237L24.8478 14.4084C24.9276 14.3449 25.003 14.2761 25.0735 14.2025C25.1372 14.1262 25.2591 14.1166 25.3019 13.9943C25.2161 13.9619 25.1232 13.953 25.0327 13.9686C24.9487 13.9956 24.8696 14.0249 24.7884 14.046C24.682 14.0704 24.5796 14.1097 24.4842 14.1628C24.3824 14.2225 24.2707 14.2634 24.1544 14.2836C24.0556 14.3009 23.96 14.3367 23.8628 14.3634C23.7977 14.3812 23.7333 14.3996 23.6677 14.4134L23.3055 14.4846L23.1814 14.5788L22.9603 14.6022L22.7471 14.7117C22.679 14.7174 22.6428 14.7025 22.6334 14.6853C22.5747 14.489 22.7018 14.3579 22.7329 14.2084C22.6804 14.1524 22.6316 14.093 22.5868 14.0307C22.5562 13.9834 22.5214 13.9391 22.4827 13.8985C22.3663 13.9034 22.25 13.8973 22.1357 13.8803L22.0311 13.8498L22.0883 13.8041L22.1362 13.7946C22.2087 13.7951 22.2813 13.7924 22.3538 13.7864L22.3432 13.779L21.9154 13.4677C21.8313 13.3983 21.7432 13.334 21.6514 13.2751C21.4749 13.1761 21.3201 13.0456 21.1468 12.9424C21.007 12.8623 20.8969 12.739 20.833 12.591L20.7959 12.5485C20.7229 12.4921 20.637 12.4546 20.5459 12.4393C20.4549 12.4239 20.3615 12.4312 20.2739 12.4605C20.1922 12.5071 20.1309 12.6038 20.0021 12.5829L19.7623 12.2865C19.6012 12.2757 19.5066 12.1537 19.4064 12.0401L19.2963 11.9026C19.2493 11.8327 19.1884 11.7732 19.1173 11.7278C18.9777 11.6487 18.8609 11.5349 18.7784 11.3973C18.7281 11.3521 18.6894 11.2956 18.6655 11.2324C18.6415 11.1692 18.633 11.1012 18.6407 11.0341C18.6348 10.9496 18.6442 10.8648 18.6685 10.7836C18.7412 10.6799 18.8402 10.5973 18.9553 10.5443L19.0492 10.3621L19.0416 10.2137L19.0545 10.0491L19.0042 9.97779C18.9178 9.89576 18.8632 9.78578 18.8503 9.66736C18.8329 9.54005 18.7761 9.42874 18.7489 9.30661L18.5864 9.15891C18.3973 9.0805 18.2151 8.98619 18.042 8.87699C17.9789 8.83524 17.9117 8.80009 17.8414 8.7721C17.7308 8.73189 17.6285 8.67149 17.5399 8.59396C17.4946 8.55673 17.4447 8.52538 17.3915 8.50066C17.1719 8.37769 16.961 8.23979 16.7603 8.08796C16.6834 8.03762 16.6127 7.97794 16.539 7.92281L16.3779 7.80286L16.1603 7.63161C16.0282 7.54629 15.915 7.43475 15.8278 7.3039L15.6493 7.23267C15.6143 7.12333 15.4959 7.06411 15.4643 6.94282C15.5197 6.90543 15.5681 6.85881 15.6076 6.80502C15.6647 6.71968 15.7306 6.64055 15.8041 6.56894L15.8353 6.39158L15.7415 6.04142L15.5927 5.88194C15.5802 5.77576 15.4664 5.69703 15.4729 5.56991L15.3122 5.22888C15.2756 5.0495 15.2113 4.87692 15.1216 4.71735C15.0982 4.67292 15.0827 4.62478 15.0756 4.57506C15.0649 4.49213 15.0648 4.40826 15.0607 4.33393L15.3373 3.81248C15.4621 3.74151 15.5562 3.62693 15.6015 3.49079C15.6671 3.38294 15.7526 3.28858 15.8535 3.21275C15.9253 3.16909 15.9903 3.11511 16.0463 3.05256C16.1085 2.97885 16.1964 2.93143 16.2922 2.91983L16.5226 2.99877L16.5738 2.9989L16.6816 2.91545C16.9391 2.92001 17.1963 2.89346 17.4475 2.83636C17.5742 2.89571 17.7242 2.86715 17.8553 2.93947C17.9795 3.00801 18.1134 3.05899 18.2442 3.11821L18.3536 3.22938C18.5315 3.27815 18.6847 3.39169 18.783 3.54767L19.0645 3.64653L19.2153 3.8547C19.2983 3.89798 19.3762 3.95039 19.4475 4.01097C19.5732 4.11749 19.7072 4.21528 19.8408 4.31278L19.867 4.33197C19.9092 4.35915 19.9545 4.38132 20.0018 4.39802L20.0514 4.39596C20.0777 4.38298 20.1 4.36324 20.1162 4.33877C20.1323 4.31429 20.1416 4.28598 20.1432 4.25672C20.1142 4.1868 20.0624 4.12873 19.9962 4.09191C19.8836 4.0256 19.7797 3.94563 19.6868 3.85381C19.6053 3.71632 19.5417 3.56892 19.4978 3.41523L19.497 3.18928C19.4472 3.06948 19.4088 2.95744 19.3552 2.85321C19.298 2.74192 19.2266 2.63797 19.1735 2.55071C19.1535 2.43761 19.1713 2.32106 19.2242 2.21905L19.1885 2.08573L19.1052 2.03061C18.9523 1.94285 18.8099 1.83795 18.6809 1.71795C18.5934 1.6394 18.4984 1.56956 18.3974 1.50942C18.2401 1.41283 18.0873 1.30866 17.9342 1.20608C17.7887 1.1086 17.6513 0.997599 17.5075 0.895795C17.3168 0.760834 17.1392 0.607618 16.9547 0.46395C16.8549 0.390322 16.7676 0.301168 16.6962 0.199891C16.5672 0.126531 16.4629 0.0223185 16.3332 0L15.6104 0.010734L15.2309 0.203287L15.0244 0.214234C14.8293 0.328459 14.6227 0.421922 14.4081 0.493088L14.3645 0.517884C14.2861 0.567317 14.199 0.601055 14.1078 0.617215C14.0498 0.62664 13.9943 0.647585 13.9446 0.678811C13.8683 0.730534 13.7847 0.770598 13.6966 0.79768C13.6423 0.819813 13.5921 0.850789 13.5479 0.889348C13.4246 0.990791 13.2823 1.0666 13.1293 1.11233C13.0727 1.12836 13.02 1.15611 12.9748 1.19378C12.9512 1.21771 12.9229 1.23649 12.8916 1.2489C12.7899 1.27352 12.721 1.36069 12.6251 1.38807C12.5317 1.42565 12.4451 1.47815 12.3686 1.5435L12.2998 1.5742C12.13 1.6455 11.9658 1.72953 11.8087 1.82557L11.745 1.97051L11.5524 2.15371C11.4908 2.29447 11.4096 2.42583 11.3112 2.54391C11.2188 2.64205 11.1557 2.76409 11.1292 2.89619C11.1229 2.94659 11.1025 2.9942 11.0704 3.0336C10.9811 3.1459 10.925 3.2809 10.9084 3.42335L10.8673 3.62007C10.8427 3.7176 10.8187 3.81566 10.7871 3.91107C10.6842 4.22119 10.551 4.52156 10.4731 4.84029L10.4456 4.90998C10.3916 5.00484 10.3484 5.10543 10.3167 5.20989C10.2831 5.30431 10.2438 5.39686 10.2027 5.48829C10.1168 5.67942 10.0345 5.87311 9.93892 6.05957C9.851 6.23101 9.76357 6.40247 9.68303 6.57741L9.64357 6.64125C9.5779 6.70672 9.5253 6.78407 9.48856 6.86918C9.45419 6.94361 9.40342 7.0093 9.34006 7.06136L9.07267 7.74327L9.02129 7.8299C8.95758 7.92861 8.91032 8.037 8.88136 8.15084C8.8524 8.27989 8.81001 8.40556 8.75488 8.52581C8.77211 8.59011 8.79116 8.64596 8.80175 8.70332C8.83722 8.90189 8.89263 9.09636 8.96713 9.28381C9.01 9.39385 9.03297 9.93487 9.03495 10.053C9.04742 10.2036 9.07163 10.3531 9.10738 10.5L9.14154 10.559L9.14349 10.5562C9.15125 10.5451 9.16006 10.5347 9.1698 10.5252C9.18085 10.5194 9.19236 10.5146 9.20419 10.5108C9.23097 10.4672 9.25745 10.3783 9.32639 10.1469C9.31372 10.0714 9.30924 9.57056 9.31304 9.4941C9.33769 9.27697 9.33651 9.0577 9.30951 8.84088C9.29768 8.74494 9.30598 8.64758 9.33386 8.55501C9.36175 8.46243 9.40862 8.37667 9.47149 8.30318C9.54738 8.21461 9.61187 8.11636 9.68934 8.01199L9.78891 7.96162C9.84721 7.84106 9.93897 7.74035 9.98635 7.6119C10.0113 7.55863 10.0452 7.51 10.0865 7.46809C10.2121 7.31132 10.326 7.14549 10.4271 6.97193C10.467 6.90797 10.503 6.84166 10.5348 6.77337C10.6091 6.61438 10.6618 6.44655 10.7311 6.28501C10.8173 6.1436 10.8711 5.98489 10.8886 5.82028C10.9431 5.67301 11.0475 5.58236 11.044 5.44732L10.9901 5.31555C11.0351 5.16051 11.0695 5.0131 11.1207 4.87185C11.1753 4.7135 11.239 4.55845 11.3115 4.40748C11.4767 4.07715 11.5808 3.72043 11.7426 3.38815C11.7592 3.34704 11.7717 3.30444 11.78 3.26093C11.8259 3.21186 11.8796 3.18035 11.8904 3.13784C11.9179 3.03017 12.0124 2.9802 12.0633 2.91365L12.108 2.79622L12.289 2.60267C12.4657 2.39934 12.6804 2.23242 12.921 2.1113C13.0957 2.02849 13.2763 1.95894 13.4615 1.90325C13.5908 1.8666 13.716 1.82209 13.8416 1.77652C14.0057 1.71313 14.1593 1.62552 14.2974 1.51663C14.3538 1.50127 14.4094 1.48281 14.4639 1.46135C14.5171 1.43738 14.5648 1.40147 14.6164 1.37339C14.7859 1.28107 14.9526 1.18257 15.1275 1.10165C15.2445 1.05542 15.3524 0.988546 15.4458 0.904207C15.4802 0.86712 15.5234 0.839137 15.5713 0.822754C15.6192 0.806371 15.6705 0.802098 15.7204 0.810316C15.7772 0.813783 15.8342 0.811846 15.8907 0.804532C15.9284 0.840029 15.9698 0.871335 16.0143 0.897899C16.1101 0.950012 16.1994 1.01344 16.2801 1.08683C16.3657 1.15408 16.4457 1.22858 16.5326 1.29391C16.5853 1.33535 16.6438 1.36902 16.7061 1.39391C16.8077 1.4338 16.9028 1.4885 16.9883 1.55624C17.0781 1.63189 17.1772 1.69574 17.2832 1.74625C17.3899 1.79486 17.4934 1.85022 17.5931 1.91197C17.7393 1.9945 17.8802 2.08649 18.0278 2.16605C18.1631 2.23427 18.2797 2.33424 18.3678 2.45739L18.4574 2.71987L18.4438 2.78384C18.4125 2.79202 18.3798 2.79393 18.3476 2.78946C18.3155 2.785 18.2846 2.77424 18.2566 2.75781C18.2195 2.69607 18.1791 2.6364 18.1355 2.57906C18.0837 2.52228 18.029 2.46823 17.9715 2.41714L17.7711 2.40096L17.6314 2.32153C17.5767 2.31237 17.5109 2.29584 17.4442 2.29105C17.2683 2.27848 17.0921 2.26453 16.916 2.26324C16.7232 2.2491 16.5294 2.27049 16.3443 2.32636C16.2762 2.34228 16.2065 2.35027 16.1366 2.35017C16.031 2.24637 15.8679 2.20965 15.8019 2.0381C15.812 1.87292 15.7829 1.70771 15.717 1.55593L15.5899 1.4906L15.4434 1.54529C15.4 1.56608 15.3399 1.52102 15.3039 1.58878L15.3974 2.25321L15.5602 2.4778C15.5828 2.50487 15.5986 2.53693 15.6063 2.57133C15.6141 2.60574 15.6135 2.64149 15.6047 2.67563L15.1563 3.15998L15.0247 3.17946L14.7717 3.51172C14.6729 3.5877 14.5568 3.63787 14.4337 3.65768C14.3872 3.65201 14.3418 3.64001 14.2986 3.622C14.2115 3.57061 14.1115 3.54528 14.0104 3.54904C13.9602 3.54695 13.9108 3.53585 13.8646 3.51627C13.7386 3.47286 13.6137 3.42622 13.4889 3.37962L13.4872 3.37898L13.4081 3.34273L13.2746 3.18554L13.0611 3.09341L12.9614 2.97521L12.86 2.77483L12.8323 2.75407C12.7451 2.74325 12.6572 2.76623 12.5865 2.81827C12.5623 2.85684 12.5478 2.90064 12.5441 2.94599C12.5404 2.99134 12.5476 3.03691 12.5653 3.07886C12.7367 3.17433 12.8925 3.29552 13.0272 3.43822C13.3569 3.54993 13.6502 3.74847 13.8764 4.01289C13.9623 4.04287 14.0349 4.02451 14.1026 4.07495L14.1699 4.24587ZM18.9671 14.9114C19.0811 14.8516 19.1825 14.7706 19.2659 14.6726L19.4535 14.6137L19.5803 14.4744C19.7139 14.4119 19.8332 14.3224 19.9305 14.2115C19.9665 14.177 19.9993 14.1393 20.0284 14.0988C20.0947 13.9947 20.1756 13.9007 20.2687 13.8197C20.2905 13.8148 20.3133 13.8174 20.3335 13.8271C20.3536 13.8368 20.3699 13.853 20.3797 13.8731C20.4563 13.9984 20.5634 14.1023 20.691 14.1749L20.8372 14.1811L20.874 14.2062C20.9799 14.3253 21.0881 14.4425 21.1889 14.5659C21.2814 14.6752 21.3509 14.802 21.3934 14.9388C21.4242 15.0429 21.4769 15.1403 21.5165 15.2419C21.5251 15.2722 21.5305 15.3032 21.5326 15.3346C21.4473 15.3724 21.4001 15.298 21.336 15.2914L21.1615 15.2789C21.071 15.3807 20.9657 15.4683 20.8491 15.5387C20.7542 15.6078 20.6638 15.6829 20.5786 15.7636L20.4259 15.8946C20.344 15.9538 20.275 16.0288 20.2228 16.1152C20.1849 16.1812 20.1309 16.2364 20.0658 16.276C19.9863 16.3377 19.9034 16.395 19.8175 16.4476C19.6909 16.508 19.5805 16.5975 19.4952 16.7088C19.3811 16.7644 19.2741 16.8132 19.1704 16.868C19.111 16.8987 19.0548 16.9353 19.0028 16.9774C18.9304 17.0349 18.8495 17.081 18.7631 17.1139L18.3456 17.2892C18.2679 17.3206 18.1949 17.3625 18.1287 17.4138C18.053 17.462 17.9728 17.5026 17.8892 17.5352C17.7772 17.6529 17.6386 17.7423 17.4851 17.7958L17.3956 17.8411C17.169 18.0009 16.9211 18.1282 16.6591 18.2194C16.5607 18.2429 16.4686 18.2875 16.3891 18.3502C16.3539 18.3722 16.3154 18.3886 16.2751 18.3985C16.1265 18.4605 15.9711 18.5046 15.8121 18.5298C15.743 18.552 15.7022 18.6327 15.6203 18.6373L15.5674 18.6228C15.493 18.5557 15.5036 18.4591 15.4905 18.3651L15.5435 18.1749L15.4657 17.8845C15.4607 17.7975 15.5351 17.7251 15.4928 17.6117L15.4019 17.496L15.3074 17.1435L15.3464 16.9787C15.3046 16.8272 15.2926 16.669 15.311 16.5129L15.3583 16.4604L15.7785 16.3619C15.8119 16.3575 15.8445 16.3486 15.8754 16.3352C16.0107 16.2668 16.1548 16.2175 16.3037 16.1887C16.5252 16.1334 16.7257 16.0258 16.9388 15.9501C17.0732 15.9023 17.2047 15.8451 17.3412 15.8045C17.463 15.7708 17.5779 15.7159 17.6806 15.6423C17.8545 15.5252 18.0388 15.4245 18.2312 15.3414C18.3853 15.2747 18.5306 15.1892 18.6638 15.0869C18.7579 15.0171 18.8596 14.9582 18.9671 14.9114ZM14.1281 16.3561L14.1413 16.374L14.1222 16.4166C13.9974 16.4857 13.8645 16.5391 13.7265 16.5754C13.6624 16.5938 13.602 16.6236 13.5483 16.6633C13.5229 16.6796 13.5091 16.7143 13.4894 16.7414L13.5373 16.8022C13.6295 16.8233 13.7258 16.8166 13.8141 16.7829C13.9901 16.7213 14.1816 16.7196 14.3585 16.7782C14.3867 16.7971 14.4103 16.8219 14.4277 16.851C14.4452 16.88 14.456 16.9125 14.4594 16.9462C14.4903 17.1366 14.5352 17.3244 14.5937 17.5082C14.6106 17.5731 14.6182 17.64 14.6164 17.707C14.6152 17.7911 14.6295 17.8746 14.6585 17.9534C14.6944 18.0569 14.7099 18.1663 14.7043 18.2757C14.7034 18.3759 14.7108 18.4762 14.7163 18.6196L14.6492 18.9301C14.5521 18.9913 14.4478 19.0406 14.3387 19.0766C14.226 19.1115 14.1181 19.1566 14.0082 19.1975C13.8918 19.245 13.7716 19.2823 13.6489 19.3091C13.4518 19.3461 13.2566 19.3976 13.0594 19.4377C12.9177 19.476 12.7788 19.5238 12.6436 19.5808L12.4742 19.5282L12.4358 19.4782C12.3798 19.3464 12.352 19.2044 12.3542 19.0613C12.3572 18.9771 12.3399 18.8935 12.3037 18.8174C12.2529 18.7012 12.2329 18.5737 12.2457 18.4475C12.2483 18.2632 12.2372 18.079 12.2123 17.8964C12.2066 17.8047 12.1874 17.7138 12.1737 17.6179L12.0325 17.3518L11.8689 17.2136L11.88 17.157C11.9768 17.0618 12.104 17.0038 12.2392 16.9931C12.3398 16.9847 12.4383 16.96 12.5309 16.9198L12.5583 16.8409L12.4742 16.76C12.3467 16.768 12.2188 16.7663 12.0915 16.7549C12.0704 16.7406 12.0547 16.7196 12.0469 16.6953C12.0391 16.671 12.0398 16.6448 12.0487 16.6209C12.0595 16.5888 12.0798 16.5607 12.1069 16.5403C12.1339 16.5198 12.1665 16.508 12.2003 16.5064C12.3754 16.4878 12.549 16.4569 12.7197 16.4137L12.9186 16.391C12.9601 16.3873 13.0013 16.3801 13.0416 16.3694C13.1427 16.3264 13.2542 16.3145 13.3621 16.335L13.4353 16.3262C13.6312 16.2762 13.8371 16.2803 14.0308 16.338L14.1281 16.3561ZM21.3959 13.7203C21.5613 13.8433 21.7131 13.9836 21.8488 14.1387C21.8693 14.1952 21.9003 14.2384 21.8806 14.3021L21.8209 14.2946C21.7698 14.2285 21.7242 14.1584 21.6613 14.0672C21.5732 14.0081 21.4364 13.9672 21.3797 13.8369L21.2091 13.7926L20.9009 13.5545C20.7826 13.3694 20.6462 13.1967 20.4935 13.0388L20.3145 12.9338C20.2912 12.8903 20.2912 12.8903 20.3114 12.8324C20.3281 12.8197 20.3479 12.8115 20.3688 12.8089C20.3897 12.8062 20.4109 12.8091 20.4303 12.8173C20.4944 12.8396 20.5497 12.8818 20.5881 12.9376C20.6574 13.0328 20.743 13.1148 20.8411 13.18C20.9287 13.2443 21.0073 13.3209 21.0925 13.3886C21.1582 13.4408 21.2154 13.5029 21.2619 13.5726C21.2972 13.6296 21.3426 13.6796 21.3959 13.7203ZM12.4599 19.8939L12.3839 19.8576C12.4163 19.8359 12.4536 19.8226 12.4925 19.8188C12.5313 19.815 12.5705 19.821 12.6065 19.8361L12.6204 19.8541L12.6071 19.8702L12.4599 19.8939Z" fill="#DFDFDF"/>
</svg>
