<svg width="115" height="30" viewBox="0 0 115 30" fill="none" xmlns="http://www.w3.org/2000/svg">
<path d="M17.476 15.442C18.0653 15.442 18.53 15.646 18.87 16.054C19.21 16.462 19.38 17.0287 19.38 17.754C19.38 17.9353 19.3687 18.128 19.346 18.332C19.3233 18.5133 19.2893 18.672 19.244 18.808C18.768 18.6947 18.2467 18.6267 17.68 18.604C17.544 19.6013 17.1813 20.6553 16.592 21.766C16.0027 22.854 15.2887 23.8853 14.45 24.86C13.6113 25.812 12.6933 26.6507 11.696 27.376C10.6987 28.1014 9.71267 28.5887 8.738 28.838C5.70067 28.77 3.47933 27.9767 2.074 26.458C0.691333 24.962 0 22.616 0 19.42C0 17.0853 0.430667 14.83 1.292 12.654C2.15333 10.4553 3.298 8.50602 4.726 6.80602C6.154 5.10602 7.786 3.74602 9.622 2.72602C11.4807 1.68335 13.4073 1.16202 15.402 1.16202C16.966 1.16202 18.1787 1.49068 19.04 2.14801C19.924 2.80535 20.366 3.73468 20.366 4.93602C20.366 5.72935 20.1733 6.46602 19.788 7.14602C19.4253 7.82602 18.8133 8.56268 17.952 9.35602C17.4307 9.19735 16.9773 8.92535 16.592 8.54002C16.2067 8.13202 15.9687 7.66735 15.878 7.14602C16.6487 6.57935 17.1927 6.05802 17.51 5.58202C17.8273 5.10602 17.986 4.53935 17.986 3.88201C17.986 2.83935 17.3627 2.31801 16.116 2.31801C15.096 2.31801 13.9967 2.70335 12.818 3.47402C11.662 4.22202 10.4947 5.31002 9.316 6.73802C7.63867 8.75535 6.41467 10.8407 5.644 12.994C4.87333 15.1247 4.488 17.5274 4.488 20.202C4.488 21.1994 4.59 22.106 4.794 22.922C4.998 23.738 5.27 24.452 5.61 25.064C5.95 25.676 6.34667 26.1633 6.8 26.526C7.276 26.8887 7.786 27.0927 8.33 27.138C9.05533 26.9793 9.78067 26.6167 10.506 26.05C11.2313 25.4607 11.8887 24.7807 12.478 24.01C13.09 23.2167 13.6 22.378 14.008 21.494C14.4387 20.5873 14.6993 19.726 14.79 18.91C14.1553 19.046 13.5433 19.182 12.954 19.318C12.3873 19.4313 11.8433 19.488 11.322 19.488C10.642 19.488 10.0413 19.318 9.52 18.978C9.02133 18.638 8.68133 18.1733 8.5 17.584C8.908 17.3573 9.49733 17.1193 10.268 16.87C11.0613 16.6207 11.9 16.394 12.784 16.19C13.668 15.9633 14.5293 15.782 15.368 15.646C16.2293 15.51 16.932 15.442 17.476 15.442Z" fill="#DFDFDF"/>
<path d="M21.5693 27.546C21.2066 27.5007 20.8213 27.342 20.4133 27.07C20.0279 26.8207 19.7786 26.5373 19.6653 26.22C19.6653 25.948 19.6993 25.5967 19.7673 25.166C19.8579 24.7353 19.9599 24.3047 20.0733 23.874C20.1866 23.4207 20.2999 23.0013 20.4133 22.616C20.5266 22.208 20.6059 21.902 20.6513 21.698C20.9233 21.698 21.2633 21.766 21.6713 21.902C22.1019 22.038 22.5326 22.2307 22.9633 22.48C23.4166 22.7067 23.8359 22.9787 24.2213 23.296C24.6293 23.5907 24.9353 23.8967 25.1393 24.214C24.9353 24.6673 24.6746 25.098 24.3573 25.506C24.0399 25.914 23.6999 26.2653 23.3373 26.56C22.9973 26.8774 22.6686 27.1154 22.3513 27.274C22.0339 27.4554 21.7733 27.546 21.5693 27.546Z" fill="#DFDFDF"/>
<path d="M52.1085 7.92802C52.1085 9.17468 51.7911 10.3647 51.1565 11.498C50.5445 12.6313 49.7058 13.6287 48.6405 14.49C47.5978 15.3287 46.3625 15.9973 44.9345 16.496C43.5291 16.9947 42.0331 17.244 40.4465 17.244C39.8798 17.244 39.4265 17.176 39.0865 17.04C38.7691 16.8813 38.4065 16.5867 37.9985 16.156C36.8651 18.6267 35.9358 20.9047 35.2105 22.99C34.5078 25.0527 33.9525 27.0587 33.5445 29.008C32.6831 28.804 31.9805 28.4414 31.4365 27.92C30.8925 27.4214 30.3938 26.7867 29.9405 26.016C30.1671 25.5853 30.4391 25.0187 30.7565 24.316C31.0738 23.6134 31.4591 22.752 31.9125 21.732C32.3658 20.6893 32.8871 19.454 33.4765 18.026C34.0885 16.5753 34.8025 14.8867 35.6185 12.96C35.9811 12.076 36.2985 11.3053 36.5705 10.648C36.8425 9.99068 37.0805 9.37868 37.2845 8.81202C37.4885 8.22268 37.6698 7.64468 37.8285 7.07802C38.0098 6.51135 38.1911 5.88802 38.3725 5.20802C37.3071 5.54802 36.3211 5.94468 35.4145 6.39801C34.5305 6.85135 33.7938 7.32735 33.2045 7.82601C33.0005 7.69001 32.7851 7.48602 32.5585 7.21402C32.3545 6.94202 32.1618 6.64735 31.9805 6.33002C31.7991 5.99002 31.6405 5.65002 31.5045 5.31001C31.3685 4.97002 31.2891 4.66402 31.2665 4.39202C31.9238 3.93868 32.7398 3.51935 33.7145 3.13402C34.6891 2.74868 35.7318 2.42002 36.8425 2.14801C37.9531 1.85335 39.0978 1.62668 40.2765 1.46802C41.4778 1.30935 42.6225 1.23001 43.7105 1.23001C45.0025 1.23001 46.1698 1.40001 47.2125 1.74002C48.2551 2.05735 49.1391 2.51068 49.8645 3.10001C50.5898 3.68935 51.1451 4.39202 51.5305 5.20802C51.9158 6.02402 52.1085 6.93068 52.1085 7.92802ZM46.0565 3.84802C45.1951 3.84802 44.3111 3.91601 43.4045 4.05201L43.8125 4.66401C43.5858 4.95868 43.3025 5.40068 42.9625 5.99002C42.6225 6.57935 42.2485 7.29335 41.8405 8.13201C41.4325 8.94802 40.9791 9.86602 40.4805 10.886C40.0045 11.906 39.4945 12.9827 38.9505 14.116C40.7185 14.116 42.3278 13.9573 43.7785 13.64C45.2291 13.3 46.4645 12.8467 47.4845 12.28C48.5271 11.6907 49.3318 11.0107 49.8985 10.24C50.4878 9.46935 50.7825 8.64202 50.7825 7.75802C50.7825 6.57935 50.3858 5.63868 49.5925 4.93602C48.7991 4.21068 47.6205 3.84802 46.0565 3.84802Z" fill="#DFDFDF"/>
<path d="M66.4429 1.50201C66.8736 1.68335 67.3156 1.92135 67.7689 2.21602C68.2222 2.48802 68.6416 2.77135 69.0269 3.06602C69.4122 3.36068 69.7296 3.65535 69.9789 3.95002C70.2509 4.22201 70.3982 4.44868 70.4209 4.63002C70.0356 4.53935 69.6502 4.48268 69.2649 4.46002C68.8796 4.41468 68.5282 4.39202 68.2109 4.39202C67.1909 4.39202 66.1709 4.64135 65.1509 5.14001C64.1536 5.63868 63.2016 6.31868 62.2949 7.18001C61.3882 8.04135 60.5496 9.05002 59.7789 10.206C59.0082 11.362 58.3396 12.5973 57.7729 13.912C57.2289 15.2267 56.7982 16.5867 56.4809 17.992C56.1636 19.3973 56.0049 20.78 56.0049 22.14C56.0049 23.908 56.2996 25.2227 56.8889 26.084C57.4782 26.9454 58.3396 27.376 59.4729 27.376C60.0169 27.376 60.6062 27.2627 61.2409 27.036C61.8756 26.832 62.5216 26.5373 63.1789 26.152C63.8362 25.7667 64.4822 25.302 65.1169 24.758C65.7516 24.214 66.3409 23.6133 66.8849 22.956C67.6782 22.004 68.3922 20.9274 69.0269 19.726C69.6616 18.502 70.1942 17.21 70.6249 15.85C71.0782 14.49 71.4182 13.096 71.6449 11.668C71.8942 10.2173 72.0189 8.80068 72.0189 7.41802C72.0189 6.87402 72.0076 6.42068 71.9849 6.05801C71.9622 5.67268 71.9282 5.35535 71.8829 5.10602C71.8602 4.83402 71.8376 4.61868 71.8149 4.46002C71.7922 4.30135 71.7696 4.16535 71.7469 4.05201C72.0189 4.18802 72.3136 4.35802 72.6309 4.56202C72.9709 4.74335 73.2769 5.02668 73.5489 5.41201C73.8436 5.77468 74.0816 6.26202 74.2629 6.87401C74.4669 7.48602 74.5689 8.27935 74.5689 9.25402C74.5689 10.8407 74.3762 12.4047 73.9909 13.946C73.6282 15.4647 73.1069 16.9153 72.4269 18.298C71.7696 19.6807 70.9876 20.9727 70.0809 22.174C69.1742 23.3754 68.1996 24.4293 67.1569 25.336C65.7969 26.5373 64.3462 27.4667 62.8049 28.124C61.2636 28.7813 59.7789 29.11 58.3509 29.11C56.2656 29.11 54.6676 28.4414 53.5569 27.104C52.4689 25.7894 51.9249 23.84 51.9249 21.256C51.9249 19.8733 52.0722 18.4113 52.3669 16.87C52.6842 15.3287 53.1149 13.81 53.6589 12.314C54.2256 10.818 54.8942 9.40135 55.6649 8.06402C56.4356 6.70402 57.2742 5.51402 58.1809 4.49401C59.1102 3.45135 60.0962 2.62401 61.1389 2.01201C62.2042 1.40002 63.2922 1.09402 64.4029 1.09402C64.7656 1.09402 65.1056 1.12802 65.4229 1.19601C65.7402 1.24135 66.0802 1.34335 66.4429 1.50201Z" fill="#DFDFDF"/>
<path d="M87.9872 24.316C88.5539 25.2907 88.8372 26.2313 88.8372 27.138C88.8372 27.342 88.8146 27.5233 88.7692 27.682C88.7466 27.8633 88.7126 28.0447 88.6672 28.226C88.2819 28.1807 87.8739 28.1467 87.4432 28.124C87.0352 28.1013 86.6046 28.09 86.1512 28.09C85.6072 28.09 85.0519 28.1013 84.4852 28.124C83.9412 28.1693 83.3292 28.226 82.6492 28.294C81.9692 28.362 81.2099 28.4527 80.3712 28.566C79.5325 28.6794 78.5579 28.8267 77.4472 29.008C76.9259 28.8267 76.4046 28.464 75.8832 27.92C75.3619 27.3987 74.8746 26.764 74.4212 26.016C74.6479 25.5173 74.9312 24.9053 75.2712 24.18C75.6112 23.432 76.0079 22.5367 76.4612 21.494C76.9146 20.4287 77.4132 19.1933 77.9572 17.788C78.5239 16.36 79.1245 14.7167 79.7592 12.858C80.1672 11.634 80.5186 10.5573 80.8132 9.62802C81.1079 8.69868 81.3686 7.80335 81.5952 6.94202C81.8446 6.05801 82.0826 5.14001 82.3092 4.18801C82.5359 3.23601 82.7852 2.13668 83.0572 0.890015C83.9639 1.07135 84.7459 1.41135 85.4032 1.91002C86.0832 2.38601 86.7292 3.07735 87.3412 3.98402C87.1599 4.27868 86.9219 4.75468 86.6272 5.41201C86.3326 6.06935 85.9812 6.87401 85.5732 7.82601C85.1879 8.75535 84.7572 9.82068 84.2812 11.022C83.8052 12.2007 83.3066 13.47 82.7852 14.83C82.2866 16.1673 81.7992 17.4253 81.3232 18.604C80.8472 19.7827 80.4166 20.848 80.0312 21.8C79.6686 22.752 79.3739 23.568 79.1472 24.248C78.9206 24.928 78.8072 25.438 78.8072 25.778C79.1699 25.7554 79.4986 25.7327 79.7932 25.71C80.0879 25.6873 80.3939 25.6534 80.7112 25.608C81.0286 25.54 81.3685 25.472 81.7312 25.404C82.1166 25.3133 82.5699 25.2 83.0912 25.064C83.5445 24.9507 83.9639 24.86 84.3492 24.792C84.7346 24.7014 85.1086 24.6333 85.4712 24.588C85.8566 24.52 86.2419 24.4747 86.6272 24.452C87.0352 24.4067 87.4886 24.3614 87.9872 24.316Z" fill="#DFDFDF"/>
<path d="M106.016 11.77C106.764 11.77 107.342 11.974 107.75 12.382C108.181 12.79 108.396 13.3567 108.396 14.082C108.396 14.2633 108.373 14.456 108.328 14.66C108.305 14.8413 108.271 15 108.226 15.136C107.931 15.0907 107.603 15.0567 107.24 15.034C106.877 14.9887 106.447 14.966 105.948 14.966C104.973 14.966 103.987 15.0567 102.99 15.238C101.993 15.3967 101.041 15.5327 100.134 15.646C99.6127 16.8473 99.1367 18.0147 98.706 19.148C98.2753 20.2587 97.9013 21.2787 97.584 22.208C97.2893 23.1373 97.0513 23.942 96.87 24.622C96.7113 25.302 96.6207 25.812 96.598 26.152C98.434 25.7667 100.281 25.438 102.14 25.166C104.021 24.894 105.993 24.69 108.056 24.554C108.305 24.9393 108.509 25.3587 108.668 25.812C108.849 26.2653 108.94 26.7527 108.94 27.274C108.94 27.41 108.94 27.5574 108.94 27.716C108.94 27.8747 108.917 28.0333 108.872 28.192C108.237 28.1693 107.569 28.1467 106.866 28.124C106.163 28.124 105.245 28.124 104.112 28.124C103.364 28.124 102.65 28.1353 101.97 28.158C101.313 28.2033 100.644 28.26 99.964 28.328C99.284 28.396 98.5587 28.4867 97.788 28.6C97.04 28.7134 96.19 28.8493 95.238 29.008C94.1953 28.6 93.1866 27.6027 92.212 26.016C92.5973 25.2 93.13 23.9647 93.81 22.31C94.5126 20.6327 95.3966 18.4 96.462 15.612C95.442 15.2947 94.7733 14.728 94.456 13.912C94.5693 13.7987 94.898 13.6627 95.442 13.504C95.986 13.3227 96.6546 13.1413 97.448 12.96C97.788 12.076 98.0713 11.3053 98.298 10.648C98.5473 9.99068 98.7627 9.37868 98.944 8.81202C99.1253 8.22268 99.284 7.65602 99.42 7.11202C99.5786 6.54535 99.726 5.93335 99.862 5.27601C99.0687 5.23068 98.4453 5.01535 97.992 4.63002C97.5386 4.22201 97.312 3.70068 97.312 3.06602C97.312 2.88468 97.3346 2.66935 97.38 2.42002C97.448 2.17068 97.516 1.95535 97.584 1.77402C98.0373 1.84202 98.468 1.88735 98.876 1.91002C99.3067 1.93268 99.862 1.94402 100.542 1.94402C101.97 1.94402 103.307 1.91002 104.554 1.84201C105.801 1.75135 106.923 1.66068 107.92 1.57002C108.94 1.47935 109.813 1.40002 110.538 1.33202C111.263 1.24135 111.819 1.19601 112.204 1.19601C112.725 1.19601 113.19 1.46801 113.598 2.01201C114.006 2.55602 114.312 3.32668 114.516 4.32402C113.813 4.25602 113.235 4.21068 112.782 4.18801C112.351 4.16535 111.966 4.15402 111.626 4.15402C110.379 4.15402 109.235 4.22201 108.192 4.35801C107.172 4.47135 106.186 4.59601 105.234 4.73202C105.098 4.93602 104.939 5.19668 104.758 5.51402C104.599 5.83135 104.384 6.27335 104.112 6.84001C103.84 7.40668 103.5 8.12068 103.092 8.98202C102.707 9.84335 102.231 10.92 101.664 12.212C102.525 12.076 103.33 11.974 104.078 11.906C104.849 11.8153 105.495 11.77 106.016 11.77Z" fill="#DFDFDF"/>
</svg>
