<svg width="24" height="24" viewBox="0 0 28 28" fill="none" xmlns="http://www.w3.org/2000/svg">
<g clip-path="url(#clip0_85_80)">
<path d="M20.4794 16.822C20.4268 16.7967 18.4584 15.8275 18.1086 15.7016C17.9658 15.6503 17.8129 15.6002 17.6502 15.6002C17.3844 15.6002 17.1611 15.7327 16.9872 15.9929C16.7906 16.2851 16.1953 16.9809 16.0114 17.1888C15.9874 17.2162 15.9546 17.249 15.935 17.249C15.9174 17.249 15.6127 17.1236 15.5205 17.0835C13.409 16.1663 11.8063 13.9606 11.5865 13.5887C11.5551 13.5352 11.5538 13.5109 11.5535 13.5109C11.5612 13.4826 11.6322 13.4114 11.6689 13.3747C11.7761 13.2686 11.8922 13.1288 12.0046 12.9935C12.0578 12.9294 12.1111 12.8653 12.1635 12.8048C12.3265 12.6151 12.3991 12.4678 12.4833 12.2972L12.5274 12.2086C12.7328 11.8003 12.5573 11.4558 12.5006 11.3446C12.4541 11.2515 11.6229 9.2456 11.5346 9.03486C11.3221 8.52633 11.0413 8.28955 10.6511 8.28955C10.6149 8.28955 10.6511 8.28955 10.4993 8.29595C10.3144 8.30375 9.30761 8.4363 8.86246 8.7169C8.3904 9.01452 7.5918 9.9632 7.5918 11.6316C7.5918 13.1332 8.54469 14.5509 8.95381 15.0901C8.96398 15.1037 8.98265 15.1313 9.00974 15.171C10.5765 17.4591 12.5297 19.1549 14.5098 19.9458C16.416 20.7073 17.3186 20.7953 17.8318 20.7953H17.8319C18.0475 20.7953 18.2202 20.7784 18.3724 20.7634L18.469 20.7542C19.1275 20.6958 20.5747 19.9459 20.9038 19.0312C21.1632 18.3107 21.2315 17.5235 21.059 17.2378C20.9408 17.0435 20.7372 16.9458 20.4794 16.822Z" fill="#FFEEEE"/>
<path d="M14.2397 1.30713C6.92721 1.30713 0.97809 7.21154 0.97809 14.469C0.97809 16.8164 1.60628 19.1141 2.7963 21.125L0.518564 27.8439C0.476135 27.9692 0.507694 28.1077 0.600353 28.202C0.667239 28.2703 0.75797 28.3071 0.850629 28.3071C0.886132 28.3071 0.921899 28.3018 0.956788 28.2906L7.96276 26.0644C9.87994 27.0887 12.0468 27.6294 14.2397 27.6294C21.5515 27.6295 27.5 21.7257 27.5 14.469C27.5 7.21154 21.5515 1.30713 14.2397 1.30713ZM14.2397 24.8878C12.1762 24.8878 10.1776 24.2919 8.45955 23.1646C8.40178 23.1266 8.33472 23.1072 8.26722 23.1072C8.23154 23.1072 8.19577 23.1126 8.16097 23.1237L4.65141 24.2392L5.78435 20.8968C5.821 20.7886 5.80268 20.6693 5.73518 20.5771C4.4269 18.7895 3.73533 16.6774 3.73533 14.469C3.73533 8.72336 8.44754 4.04886 14.2396 4.04886C20.0309 4.04886 24.7426 8.72336 24.7426 14.469C24.7427 20.214 20.0311 24.8878 14.2397 24.8878Z" fill="#FFEEEE"/>
</g>
<defs>
<clipPath id="clip0_85_80">
<rect width="27" height="27" fill="white" transform="translate(0.5 0.966309)"/>
</clipPath>
</defs>
</svg>
